<svg xmlns="http://www.w3.org/2000/svg" width="47.729" height="44.75" viewBox="0 0 47.729 44.75">
  <path id="Shape" d="M37.294,44a2.905,2.905,0,0,1-2.1-1.057,4.351,4.351,0,0,1-.931-4.229,1.383,1.383,0,0,1,1.266-.785,2.952,2.952,0,0,1,1.025.242,2.207,2.207,0,0,0,.488.147.94.94,0,0,1,.105-.146,1.819,1.819,0,0,1,1.32-.8c.063-.006.117-.009.167-.009a1.59,1.59,0,0,1,1.4.88c.492.89.514,2.593-.9,4.7A2.2,2.2,0,0,1,37.294,44Zm-1.637-4.491a3.3,3.3,0,0,0,.727,2.4,1.415,1.415,0,0,0,.91.536c.07,0,.282,0,.513-.347,1.2-1.789,1-2.951.794-3.173-.038.01-.066.038-.187.193a1.749,1.749,0,0,1-1.066.725,1.486,1.486,0,0,1-.284.027,3.176,3.176,0,0,1-1.07-.245c-.141-.053-.254-.093-.336-.116Zm1.036-2.343a1.944,1.944,0,0,1-1.339-.525.645.645,0,0,0-.5-.224,3.125,3.125,0,0,0-.432.047h-.008l-.035.005-.048.007-.041.006h-.005a6.547,6.547,0,0,1-.985.1,2.548,2.548,0,0,1-1.694-.569,5.01,5.01,0,0,0-.711-.464l-.011-.006-.015-.008a2.311,2.311,0,0,1-1.5-2.262,2.345,2.345,0,0,0-.006-.439l-.087-.041a3.786,3.786,0,0,1-.637-.378,2.167,2.167,0,0,1-.933-1.642,2.343,2.343,0,0,0-.31.359,1.25,1.25,0,0,1-1.05.552c-1.086,0-2.333-1.34-2.722-2.926-.254-1.038-1.766-1.192-2.4-1.21-.1,0-.211-.005-.334-.005-2.508,0-5.441.592-5.936,1.69-.025.056-.045.114-.068.18l0,.008a2,2,0,0,1-1.059,1.3,2.294,2.294,0,0,1-1.005.205c-.085,0-.177,0-.306-.007h-.049c-.109,0-.229-.007-.362-.007-.183,0-.358.006-.536.02a2.99,2.99,0,0,0-2.324.985,3.176,3.176,0,0,1-2.1.932c-.122,0-.228.007-.324.007a3.335,3.335,0,0,1-2.881-1.139,1.246,1.246,0,0,1,.205-1.808c.02-.018.04-.036.059-.055a3.9,3.9,0,0,0-.787-2.263A11.552,11.552,0,0,1,2.247,25.23l0-.005,0-.005a6.385,6.385,0,0,0-1-1.928C.558,22.7-.084,21.966.37,21.046a2.149,2.149,0,0,1,.2-.317.907.907,0,0,0,.082-.12.562.562,0,0,0-.04-.159L.55,20.283a5.665,5.665,0,0,1-.317-3.909,1.932,1.932,0,0,1,1.665-1.5,1.854,1.854,0,0,0,1.054-.521,2.883,2.883,0,0,1,1.4-.672h.008a1.686,1.686,0,0,0,.76-.314,3.62,3.62,0,0,1,1.408-.824l.032-.011c.072-.025.205-.072.373-.134a6.727,6.727,0,0,1,.74-.217l.005,0c.748-.189.966-.288,1.068-.623a2.534,2.534,0,0,1,.713-1.318c0-.054-.01-.116-.015-.167a2.171,2.171,0,0,1,.5-1.9,1.454,1.454,0,0,1,1.065-.379c.058,0,.124,0,.181,0l.054,0c.058,0,.127.005.2.005.227,0,.391,0,.613-.415a1.362,1.362,0,0,0,.123-.529,2.463,2.463,0,0,1,.932-1.83,3.437,3.437,0,0,1,2.149-1.036,4.489,4.489,0,0,1,2.625,1.336l.011.008.016.012a3.114,3.114,0,0,1,1.348-2.464l.008-.007a2.362,2.362,0,0,0,.261-.231l0-.007c.011-.035.025-.081.04-.134l.016-.054.039-.133A2.536,2.536,0,0,1,20.978.454a1.84,1.84,0,0,1,.7-.145,1.933,1.933,0,0,1,1.009.326l.007,0a1.254,1.254,0,0,0,.733.229,2.478,2.478,0,0,0,.4-.037,3.845,3.845,0,0,1,.644-.059,2.374,2.374,0,0,1,1.489.509l.006,0,.008.006a1.737,1.737,0,0,0,.545.285,1.331,1.331,0,0,0,.347.04,1.721,1.721,0,0,0,.736-.15,1.155,1.155,0,0,1,.522-.118A1.3,1.3,0,0,1,29.261,2,1.3,1.3,0,0,1,29.1,3.417c-.354.51-.312.628-.249.808.352,1.012-.659,1.559-1.145,1.822.218.128.493.26.778.4l0,0A10.069,10.069,0,0,1,31.5,8.391c.412.416.622.428.644.428.093,0,.309-.226.473-.649a29.594,29.594,0,0,0,.537-3.425c0-.034.53-3.483,1.043-4.163A1.3,1.3,0,0,1,35.253,0c.881,0,1.4.909,1.521,1.81a1.567,1.567,0,0,0,.244.566,4.284,4.284,0,0,1,.64,1.959c.022.254.035.407.622.606,1.2.4,1.493,2.2,1.778,4.685l.028.244c.183,1.579.252,1.8,1.029,2.176a3.568,3.568,0,0,1,2.127,2.394l.022.058a1.774,1.774,0,0,0,.569.738,3.436,3.436,0,0,1,.978,1.3,2.865,2.865,0,0,1,.216.839,1.684,1.684,0,0,0,.453.965c.163.22.322.4.476.573l.008.009.008.009L46,18.96a3.117,3.117,0,0,1,.981,2.766c-.028.333-.025.755-.022,1.164V22.9c.007,1.648.017,3.906-1.447,5.707-.468.574-.92,1.1-1.343,1.581l-.007.009-.008.009-.009.01-.009.01A9.008,9.008,0,0,0,42.2,32.947l-.035.137c-.317,1.248-.8,3.133-2.923,3.239a2.336,2.336,0,0,0-1.33.422A2.139,2.139,0,0,1,36.693,37.166Zm-1.821-2.3a2.294,2.294,0,0,1,.365.029,2.249,2.249,0,0,1,1.138.555c.188.154.206.163.32.163.069,0,.119-.024.354-.17a3.9,3.9,0,0,1,2.114-.671c.856-.043,1.113-.693,1.462-2.062l.036-.14a9.64,9.64,0,0,1,2.289-3.379c.415-.476.859-.989,1.319-1.554,1.118-1.375,1.109-3.239,1.1-4.737V22.86c0-.454,0-.883.028-1.259a1.666,1.666,0,0,0-.594-1.616c-.184-.205-.392-.438-.611-.733a3.112,3.112,0,0,1-.745-1.688v-.005a1.356,1.356,0,0,0-.1-.428,1.942,1.942,0,0,0-.588-.751,3.307,3.307,0,0,1-.976-1.321L41.756,15c-.368-.933-.445-1.127-1.343-1.558-1.606-.771-1.726-1.816-1.909-3.4L38.475,9.8l0-.015c-.094-.823-.345-3.01-.75-3.385a2.133,2.133,0,0,1-1.651-1.932,2.8,2.8,0,0,0-.44-1.325l-.006-.012a3.356,3.356,0,0,1-.376-.842c-.2.827-.442,2.037-.517,2.642A25.184,25.184,0,0,1,34.1,8.72a2.213,2.213,0,0,1-1.961,1.653,2.576,2.576,0,0,1-1.788-.9,8.692,8.692,0,0,0-2.565-1.626l-.007,0-.006,0A4.48,4.48,0,0,1,26.034,6.7a1.11,1.11,0,0,1-.212-.916c.13-.565.646-.844,1.1-1.091l.011-.006.027-.015c.092-.051.219-.12.309-.177a1.919,1.919,0,0,1,.163-1.366,3.736,3.736,0,0,1-.562.043,2.953,2.953,0,0,1-.81-.1,3.284,3.284,0,0,1-1.023-.515l-.01-.006a.8.8,0,0,0-.562-.22,2.3,2.3,0,0,0-.372.037,4.041,4.041,0,0,1-.67.059,2.831,2.831,0,0,1-1.553-.452l-.008,0a1.526,1.526,0,0,0-.2-.1l-.008,0-.005,0a.515.515,0,0,0-.066.023c-.2.082-.328.512-.428.858-.048.163-.1.335-.158.488a2.089,2.089,0,0,1-.717.842,1.611,1.611,0,0,0-.778,1.36,1.424,1.424,0,0,1-1.411,1.545,2,2,0,0,1-1.205-.445,4.067,4.067,0,0,0-1.625-.99c-.233,0-.584.207-1.1.651a.977.977,0,0,0-.4.826l0,.017v.006a2.761,2.761,0,0,1-.292,1.059,2.131,2.131,0,0,1-2.024,1.251c-.057,0-.113,0-.167,0h-.049l-.045,0h-.016l-.039,0-.1,0a1.7,1.7,0,0,0,0,.561v.014a1.642,1.642,0,0,1-.144,1.069,1.6,1.6,0,0,1-.331.378c-.045.04-.122.107-.282.633a2.621,2.621,0,0,1-2.194,1.685,5.413,5.413,0,0,0-.574.165c-.175.066-.315.115-.441.158a2.149,2.149,0,0,0-.922.553,3.162,3.162,0,0,1-1.4.63,1.392,1.392,0,0,0-.706.3,3.43,3.43,0,0,1-1.814.906c-.343.069-.343.069-.482.472a4.244,4.244,0,0,0,.3,2.862l.076.194a1.651,1.651,0,0,1-.251,1.711l-.012.015-.006.008a2.842,2.842,0,0,0,.456.463,6.666,6.666,0,0,1,1.421,2.52A10.5,10.5,0,0,0,4.716,26.7a5.1,5.1,0,0,1,1.035,3.527,1.4,1.4,0,0,1-.406.7,2.277,2.277,0,0,0,1.47.373c.088,0,.172,0,.255-.006a1.609,1.609,0,0,0,.977-.407,4.6,4.6,0,0,1,3.4-1.506c.221-.016.434-.023.649-.023.184,0,.34,0,.468.01l.07,0c.075,0,.131,0,.181,0a.67.67,0,0,0,.328-.058c.093-.042.13-.106.23-.4.035-.1.075-.214.121-.314,1.124-2.492,6.355-2.618,7.393-2.618.137,0,.265,0,.381.005,2.091.06,3.551.958,3.9,2.4A3,3,0,0,0,26.23,30.06a3.181,3.181,0,0,1,2.011-1.282,1.031,1.031,0,0,1,.729.288,1.087,1.087,0,0,1,.311.808l0,.212c-.008.712.015.857.328,1.091a2.332,2.332,0,0,0,.373.219l0,0,.005,0c.692.339,1.031.734.968,1.949-.021.4.07.475.708.839a6.255,6.255,0,0,1,.963.634.97.97,0,0,0,.668.2,5.149,5.149,0,0,0,.741-.076h.007l.012,0h.009A5.445,5.445,0,0,1,34.872,34.865Z" transform="translate(0.36 0.375)" fill="#1f1f1f" stroke="#252525" stroke-miterlimit="10" stroke-width="0.75"/>
</svg>
