<svg xmlns="http://www.w3.org/2000/svg" width="33" height="42" viewBox="0 0 33 42">
  <path id="Shape" d="M18.964,42A10.088,10.088,0,0,1,8.825,31.987V20.49a10.272,10.272,0,0,1-6.31-3.375A10.032,10.032,0,0,1,0,10.477V0H5.962V2.782H2.816v7.7a7.394,7.394,0,0,0,14.787,0v-7.7H14.458V0h5.962V10.477a10.033,10.033,0,0,1-2.5,6.625,10.271,10.271,0,0,1-6.282,3.389v11.5a7.323,7.323,0,0,0,14.646,0V25.775a5.3,5.3,0,0,1-3.017-2.163A5.192,5.192,0,0,1,24.2,16.78a5.356,5.356,0,0,1,6.981,0,5.192,5.192,0,0,1,.935,6.832A5.3,5.3,0,0,1,29.1,25.775v6.212A10.088,10.088,0,0,1,18.964,42Zm8.683-23.735a2.5,2.5,0,0,0-.952.187,2.452,2.452,0,0,0,.952,4.727,2.481,2.481,0,0,0,2.3-1.516,2.427,2.427,0,0,0-.539-2.678A2.489,2.489,0,0,0,27.647,18.265Z" fill="#1f1f1f"/>
</svg>
