<svg xmlns="http://www.w3.org/2000/svg" width="37.204" height="41.4" viewBox="0 0 37.204 41.4">
  <g id="noun_Lock_1812735" transform="translate(-0.526 -0.425)">
    <path id="Shape" d="M4.039,10.35a3.046,3.046,0,0,1-3.083-3V6.4L.891,6.306.88,6.291.869,6.275c-.081-.116-.2-.291-.319-.481A3.74,3.74,0,0,1,0,3.846,3.922,3.922,0,0,1,3.986,0,3.922,3.922,0,0,1,7.972,3.846a3.739,3.739,0,0,1-.507,1.877c-.059.1-.116.194-.166.271s-.09.139-.125.192l-.053.081V7.349A3.046,3.046,0,0,1,4.039,10.35ZM3.986,2.588a1.34,1.34,0,0,0-1.132.6,1.211,1.211,0,0,0-.2.66,1.2,1.2,0,0,0,.177.627c.061.1.131.2.2.3l.054.077.021.029c.09.129.183.262.262.4a1.6,1.6,0,0,1,.238.641c0,.045.006.082.006.116V7.349a.425.425,0,0,0,.85,0V5.916a1.4,1.4,0,0,1,.185-.658,5.464,5.464,0,0,1,.285-.466l.033-.05c.061-.093.125-.192.183-.292A1.2,1.2,0,0,0,5.1,3.163,1.344,1.344,0,0,0,3.986,2.588Z" transform="translate(15.142 25.006)"/>
    <path id="Shape-2" data-name="Shape" d="M33.218,41.4H3.986A3.939,3.939,0,0,1,0,37.518V19.406a3.939,3.939,0,0,1,3.986-3.881h2.66v-.013c0-.039,0-.077,0-.115V11.643a11.416,11.416,0,0,1,3.5-8.233,12.188,12.188,0,0,1,16.911,0,11.416,11.416,0,0,1,3.5,8.233V15.4c0,.042,0,.085,0,.128h2.66A3.939,3.939,0,0,1,37.2,19.406V37.518A3.939,3.939,0,0,1,33.218,41.4ZM3.986,18.113a1.313,1.313,0,0,0-1.328,1.293V37.518a1.313,1.313,0,0,0,1.328,1.294H33.218a1.313,1.313,0,0,0,1.328-1.294V19.406a1.313,1.313,0,0,0-1.328-1.293ZM18.6,2.588a9.192,9.192,0,0,0-9.3,9.056V15.4a.13.13,0,0,0,.132.128H27.771A.13.13,0,0,0,27.9,15.4V11.643A9.191,9.191,0,0,0,18.6,2.588Z" transform="translate(0.526 0.425)"/>
  </g>
</svg>
