<svg xmlns="http://www.w3.org/2000/svg" width="59.5" height="35.5" viewBox="0 0 59.5 35.5">
  <path id="Shape" d="M50.721,35a4.04,4.04,0,0,1-2.664-1.007,4.443,4.443,0,0,1-1.413-2.518H30.334a4.173,4.173,0,0,1-1.39,2.518A4.1,4.1,0,0,1,26.257,35a4.151,4.151,0,0,1-2.741-1.039,4.251,4.251,0,0,1-1.4-2.55.549.549,0,0,1-.309.063H17.854A1.088,1.088,0,0,1,16.8,30.4V6.421c.062-.063.062-.063.062-.126a.082.082,0,0,1,.031-.063.081.081,0,0,0,.031-.062l.061-.063c.039,0,.053-.024.073-.057l0-.006a.4.4,0,0,1,.048-.063L22.674.315A1.016,1.016,0,0,1,23.414,0h15.2a1.124,1.124,0,0,1,.742.315l5.56,5.666c.035,0,.049.02.069.052a.347.347,0,0,0,.054.074.061.061,0,0,1,.062.063.081.081,0,0,0,.031.062.082.082,0,0,1,.031.063c.062.063.062.063.062.126v.063a.237.237,0,0,0,.061.189v3.336h5.808A7.346,7.346,0,0,1,56.714,12.4,10.014,10.014,0,0,1,59,19.263V30.4a1.088,1.088,0,0,1-1.05,1.07H54.8a4.179,4.179,0,0,1-1.391,2.518A4.1,4.1,0,0,1,50.721,35ZM50.6,28.768a2.078,2.078,0,1,0,2.039,2.078A2.086,2.086,0,0,0,50.6,28.768Zm-24.465,0a2.078,2.078,0,1,0,2.038,2.078A2.087,2.087,0,0,0,26.133,28.768Zm0-2.2a4.166,4.166,0,0,1,3.954,2.9A.459.459,0,0,1,30.4,29.4H43.061V11.079h.062V7.743H18.911L18.9,29.335h2.842a1.192,1.192,0,0,1,.432.126A4.208,4.208,0,0,1,26.133,26.564ZM50.6,26.5a4.175,4.175,0,0,1,3.954,2.833h2.286V19.263c0-4.388-2.225-7.114-5.808-7.114H45.284V29.335h1.421A4.133,4.133,0,0,1,50.6,26.5ZM31.879,2.14V5.665h9.76L38.18,2.14Zm-8.094,0-3.46,3.525h9.391V2.14H23.785ZM13.653,25.494H5.56a1.07,1.07,0,0,1,0-2.14h8.093a1.014,1.014,0,0,1,1.05,1.07A1.088,1.088,0,0,1,13.653,25.494ZM32.434,23.1a1.091,1.091,0,0,1-1.065-1.134.955.955,0,0,1,.324-.692L33.3,19.641H25.144a.782.782,0,0,1-.172.019.832.832,0,0,1-.62-.292,1.02,1.02,0,0,1-.259-.673,1.088,1.088,0,0,1,1.05-1.07H33.3l-1.42-1.447a1.117,1.117,0,0,1-.324-.819.955.955,0,0,1,.324-.692,1.067,1.067,0,0,1,.764-.331.922.922,0,0,1,.718.331l3.213,3.273a.35.35,0,0,1,.05.068c.02.034.035.058.073.058a.082.082,0,0,0,.015.042.057.057,0,0,0,.048.021.083.083,0,0,0,.031.063.082.082,0,0,1,.031.063c0,.063,0,.063.062.126v.5c0,.063,0,.063-.062.126a.082.082,0,0,1-.031.063.083.083,0,0,0-.031.063.061.061,0,0,1-.062.063.348.348,0,0,0-.051.069c-.02.033-.035.057-.072.057l-3.4,3.462A1.123,1.123,0,0,1,32.434,23.1ZM13.592,19.641H1.05A1.05,1.05,0,0,1,0,18.57,1.088,1.088,0,0,1,1.05,17.5H13.592a1.071,1.071,0,0,1,0,2.141Zm.061-5.854H5.56a1.07,1.07,0,0,1,0-2.14h8.093a1.07,1.07,0,0,1,0,2.14Z" transform="translate(0.25 0.25)" fill="#1f1f1f" stroke="#252525" stroke-miterlimit="10" stroke-width="0.5"/>
</svg>
