<svg xmlns="http://www.w3.org/2000/svg" width="47.5" height="39.5" viewBox="0 0 47.5 39.5">
  <g id="Group_4" data-name="Group 4" transform="translate(0.25 0.25)">
    <path id="Shape" d="M6.754,11.29H3.464a.7.7,0,0,1-.667-.736V8.2H.666A.7.7,0,0,1,0,7.465V3.827a.7.7,0,0,1,.666-.736H2.8V.737A.705.705,0,0,1,3.464,0h3.29A.705.705,0,0,1,7.42.737V3.091h2.13a.7.7,0,0,1,.667.736V7.465a.7.7,0,0,1-.667.735H7.42v2.353A.7.7,0,0,1,6.754,11.29ZM1.333,4.563V6.728h2.1a.741.741,0,0,1,.7.774V9.818H6.088V7.5a.741.741,0,0,1,.7-.774h2.1V4.563h-2.1a.739.739,0,0,1-.7-.77V1.473H4.13V3.793a.739.739,0,0,1-.7.77Z" transform="translate(10.217 18.474)" fill="#1f1f1f" stroke="#252525" stroke-miterlimit="10" stroke-width="0.5"/>
    <path id="Path" d="M11.335,16.421a.917.917,0,0,1-.925-.908V3.635A1.837,1.837,0,0,0,8.559,1.817H3.7a1.837,1.837,0,0,0-1.85,1.818V15.513a.917.917,0,0,1-.925.908A.917.917,0,0,1,0,15.513V3.635A3.673,3.673,0,0,1,3.7,0H8.559a3.673,3.673,0,0,1,3.7,3.635V15.513A.917.917,0,0,1,11.335,16.421Z" transform="translate(24.522 21.553)" fill="#1f1f1f" stroke="#252525" stroke-miterlimit="10" stroke-width="0.5"/>
    <path id="Path-2" data-name="Path" d="M36.86,28.737H.944A1.065,1.065,0,0,1,0,27.583V1.155A1.066,1.066,0,0,1,.944,0a1.066,1.066,0,0,1,.944,1.155V26.428H35.916V1.155a.964.964,0,1,1,1.889,0V27.583A1.066,1.066,0,0,1,36.86,28.737Z" transform="translate(4.087 10.263)" fill="#1f1f1f" stroke="#252525" stroke-miterlimit="10" stroke-width="0.5"/>
    <path id="Shape-2" data-name="Shape" d="M45.932,11.29H1.068A1.016,1.016,0,0,1,0,10.339c0-.238,4.195-8.814,4.237-8.9A2.857,2.857,0,0,1,6.691,0H40.024A2.924,2.924,0,0,1,42.49,1.41C42.535,1.5,47,10.126,47,10.339A1.015,1.015,0,0,1,45.932,11.29ZM6.691,1.9a.756.756,0,0,0-.514.3L2.663,9.389h41.62L40.57,2.212a.808.808,0,0,0-.545-.312Z" fill="#1f1f1f" stroke="#252525" stroke-miterlimit="10" stroke-width="0.5"/>
  </g>
</svg>
