<svg xmlns="http://www.w3.org/2000/svg" width="45.702" height="44.66" viewBox="0 0 45.702 44.66">
  <g id="noun_Law_2048366_222328" transform="translate(-0.555 -0.598)">
    <path id="Shape" d="M44.42,44.145H24.487a.772.772,0,0,1-.767-.776v-3.1a2.35,2.35,0,0,1,1.534-2.188v-.916a2.317,2.317,0,0,1,2.3-2.327h13.8a2.316,2.316,0,0,1,2.3,2.327v.916a2.349,2.349,0,0,1,1.534,2.188v3.1A.772.772,0,0,1,44.42,44.145Zm-18.4-4.656a.773.773,0,0,0-.767.777v2.327h18.4V40.266a.772.772,0,0,0-.766-.777H41.354a.776.776,0,0,1,0-1.552h.767v-.776a.772.772,0,0,0-.767-.776h-13.8a.772.772,0,0,0-.767.776v.776h11.5a.776.776,0,0,1,0,1.552ZM4.48,38.622H4.432a2.3,2.3,0,0,1-1.625-.683L.721,35.828A2.286,2.286,0,0,1,0,34.151a2.337,2.337,0,0,1,.721-1.66l17.2-16.371-1.057-1.086a3.816,3.816,0,0,1-1.12-2.715,2.056,2.056,0,0,1-.521.109,2.326,2.326,0,0,1-1.625-.683,2.349,2.349,0,0,1,0-3.289L21.267.7a2.249,2.249,0,0,1,2.725-.41A2.313,2.313,0,0,1,25.1,2.838a3.869,3.869,0,0,1,2.683,1.133l6.578,6.455a4,4,0,0,1,1.12,2.685,1.882,1.882,0,0,1,.253-.017,1.543,1.543,0,0,1,.253.017h.04a2.209,2.209,0,0,1,1.586.668,2.373,2.373,0,0,1,0,3.29l-7.667,7.758a2.309,2.309,0,0,1-3.25,0,2.353,2.353,0,0,1-.675-1.644,3.122,3.122,0,0,1,.061-.527,3.731,3.731,0,0,1-2.637-1.133L22.371,20.45,6.1,37.938A2.286,2.286,0,0,1,4.48,38.622ZM19.121,17.13,1.809,33.609a.782.782,0,0,0-.245.559.764.764,0,0,0,.229.558l2.1,2.126a.707.707,0,0,0,.523.234h.03A.763.763,0,0,0,5,36.836L21.282,19.318Zm16.844-2.468a.76.76,0,0,0-.59.28l-3.726,3.8-2.713,2.731L27.86,22.56a.773.773,0,0,0,.537,1.324.757.757,0,0,0,.536-.222l7.59-7.681a.781.781,0,0,0,.162-.839.767.767,0,0,0-.7-.481h-.023ZM25.062,4.39a2.278,2.278,0,0,0-1.617.682L18.017,10.55a2.391,2.391,0,0,0,0,3.306l6.516,6.579a2.341,2.341,0,0,0,3.251.077l2.7-2.746L33.2,14.942a2.331,2.331,0,0,0,0-3.29L26.7,5.072a2.292,2.292,0,0,0-1.625-.683h-.008Zm-2.17-2.84a.772.772,0,0,0-.536.233L14.812,9.464A.769.769,0,1,0,15.9,10.55l1.074-1.086h-.031l5.413-5.493,1.089-1.1a.788.788,0,0,0,0-1.086A.777.777,0,0,0,22.892,1.55ZM37.452,33.3a.769.769,0,0,1-.545-1.319l2.408-2.436a.759.759,0,0,1,1.074,0,.782.782,0,0,1,0,1.1L38,33.081A.79.79,0,0,1,37.452,33.3Zm-6,0a.788.788,0,0,1-.544-.217L28.52,30.645a.782.782,0,0,1,0-1.1.76.76,0,0,1,1.074,0L32,31.98a.768.768,0,0,1-.544,1.319Zm3-1.257a.772.772,0,0,1-.767-.776v-3.43a.767.767,0,1,1,1.534,0v3.43A.772.772,0,0,1,34.454,32.042Z" transform="translate(0.813 0.855)" stroke="#000" stroke-miterlimit="10" stroke-width="0.515"/>
  </g>
</svg>
