<svg xmlns="http://www.w3.org/2000/svg" width="38.89" height="37.02" viewBox="0 0 38.89 37.02">
  <g id="noun_Australia_509021_1f1f1f" transform="translate(-0.059 0.01)">
    <path id="Shape" d="M30.475,36.519a2.362,2.362,0,0,1-1.713-.878A3.658,3.658,0,0,1,28,32.131a1.131,1.131,0,0,1,1.035-.651,2.347,2.347,0,0,1,.837.2l.009,0,.011,0a1.719,1.719,0,0,0,.379.114.576.576,0,0,1,.086-.122,1.487,1.487,0,0,1,1.078-.662c.049,0,.094-.007.137-.007a1.294,1.294,0,0,1,1.142.731c.4.737.42,2.149-.733,3.9A1.787,1.787,0,0,1,30.475,36.519Zm-1.337-3.728a2.768,2.768,0,0,0,.594,1.992,1.157,1.157,0,0,0,.743.446c.057,0,.23,0,.419-.288.976-1.483.817-2.449.649-2.633-.033.008-.059.038-.153.16a1.426,1.426,0,0,1-.871.6,1.2,1.2,0,0,1-.233.022,2.552,2.552,0,0,1-.874-.2l-.021-.008c-.079-.029-.177-.066-.254-.088Zm.846-1.944a1.573,1.573,0,0,1-1.095-.436.6.6,0,0,0-.315-.179.639.639,0,0,0-.1-.007,2.489,2.489,0,0,0-.358.04h-.005l-.012,0-.032.005-.053.008h-.005a5.226,5.226,0,0,1-.8.078,2.067,2.067,0,0,1-1.384-.472,4.087,4.087,0,0,0-.589-.39l-.014-.008A1.914,1.914,0,0,1,24,27.615a2.18,2.18,0,0,0,0-.365l-.016-.008-.034-.017-.022-.01-.011-.005A3.08,3.08,0,0,1,23.4,26.9a1.806,1.806,0,0,1-.763-1.363,1.967,1.967,0,0,0-.253.3,1.02,1.02,0,0,1-.859.458c-.888,0-1.906-1.112-2.224-2.428-.208-.861-1.443-.989-1.965-1-.067,0-.147,0-.274,0-2.049,0-4.446.491-4.851,1.4-.019.042-.034.086-.048.129l-.009.027a1.653,1.653,0,0,1-.866,1.083,1.85,1.85,0,0,1-.821.171c-.077,0-.159,0-.25-.006H10.2c-.087,0-.19-.007-.308-.007-.139,0-.284.006-.442.017a2.429,2.429,0,0,0-1.9.816,2.578,2.578,0,0,1-1.717.774c-.094,0-.175.005-.265.005a2.706,2.706,0,0,1-2.354-.945,1.045,1.045,0,0,1,.168-1.5l.012-.011L3.4,24.8l.024-.023A3.38,3.38,0,0,0,2.786,22.9a9.633,9.633,0,0,1-.949-1.957l0-.008a5.274,5.274,0,0,0-.815-1.6C.456,18.838-.068,18.23.3,17.467A1.757,1.757,0,0,1,.466,17.2l0-.005A.584.584,0,0,0,.533,17.1.488.488,0,0,0,.5,16.973l-.052-.138,0-.007A4.759,4.759,0,0,1,.191,13.59a1.587,1.587,0,0,1,1.361-1.243,1.5,1.5,0,0,0,.86-.432,2.35,2.35,0,0,1,1.149-.558l.007,0a1.357,1.357,0,0,0,.617-.259,2.939,2.939,0,0,1,1.15-.684l.009,0c.087-.031.191-.067.322-.117a5.158,5.158,0,0,1,.577-.173l.016,0,.016,0c.612-.156.789-.237.872-.517A2.127,2.127,0,0,1,7.732,8.5l0-.03c0-.007,0-.014,0-.021s0-.015,0-.023,0-.037-.005-.052V8.36a1.818,1.818,0,0,1,.409-1.579A1.178,1.178,0,0,1,9,6.467l.125,0,.052,0h.052c.041,0,.083,0,.125,0,.186,0,.32,0,.5-.345a1.165,1.165,0,0,0,.1-.439,2.054,2.054,0,0,1,.76-1.518,2.792,2.792,0,0,1,1.757-.86,3.65,3.65,0,0,1,2.145,1.109l0,0,.005,0,.013.009A2.592,2.592,0,0,1,15.74,2.4l.006,0A1.809,1.809,0,0,0,15.96,2.2c.007-.023.016-.053.026-.087L16,2.067l.01-.032.008-.03c.007-.026.014-.052.022-.078a2.107,2.107,0,0,1,1.1-1.551,1.485,1.485,0,0,1,.569-.121,1.55,1.55,0,0,1,.826.273,1.026,1.026,0,0,0,.6.193A1.915,1.915,0,0,0,19.467.69a3.059,3.059,0,0,1,.526-.049,1.917,1.917,0,0,1,1.216.424l.005,0a1.428,1.428,0,0,0,.452.24,1.052,1.052,0,0,0,.284.033,1.393,1.393,0,0,0,.6-.125.958.958,0,0,1,.427-.1,1.061,1.061,0,0,1,.933.538,1.1,1.1,0,0,1-.136,1.179c-.289.423-.255.522-.2.671.287.841-.539,1.294-.936,1.512l0,0c.181.1.416.217.621.316l.02.01A8.27,8.27,0,0,1,25.74,6.963c.337.346.508.356.527.356.076,0,.253-.187.386-.538a25.076,25.076,0,0,0,.44-2.844A14.966,14.966,0,0,1,27.945.482,1.056,1.056,0,0,1,28.807,0c.72,0,1.143.754,1.243,1.5a1.3,1.3,0,0,0,.2.47A3.614,3.614,0,0,1,30.772,3.6c.018.21.029.338.509.5.98.337,1.22,1.824,1.453,3.889l.022.2c.149,1.311.206,1.5.841,1.807a2.946,2.946,0,0,1,1.737,1.986l.019.048a1.463,1.463,0,0,0,.465.613,2.851,2.851,0,0,1,.8,1.076,2.42,2.42,0,0,1,.176.7,1.406,1.406,0,0,0,.369.8c.147.2.285.357.419.508l.008.009a2.61,2.61,0,0,1,.8,2.3c-.022.265-.02.6-.018.951V19A7.183,7.183,0,0,1,37.19,23.74c-.369.461-.736.891-1.06,1.27l-.007.008-.018.021-.019.022a7.577,7.577,0,0,0-1.6,2.285l-.029.113c-.259,1.035-.651,2.6-2.389,2.688a1.883,1.883,0,0,0-1.089.352A1.738,1.738,0,0,1,29.984,30.848ZM28.5,28.938a1.8,1.8,0,0,1,.3.023,1.836,1.836,0,0,1,.931.462c.152.127.166.134.26.134.06,0,.1-.021.289-.141A3.2,3.2,0,0,1,32,28.859c.7-.035.91-.574,1.194-1.711l.03-.116a8.008,8.008,0,0,1,1.868-2.8l.056-.066.027-.031L35.2,24.1c.3-.349.635-.746.972-1.167a6.064,6.064,0,0,0,.9-3.93V19c0-.387,0-.753.023-1.073a1.393,1.393,0,0,0-.487-1.342l-.01-.012c-.146-.166-.311-.354-.489-.6a2.6,2.6,0,0,1-.608-1.4,1.155,1.155,0,0,0-.086-.36,1.607,1.607,0,0,0-.479-.622,2.731,2.731,0,0,1-.8-1.1l-.019-.048c-.3-.774-.363-.935-1.1-1.293-1.311-.638-1.41-1.5-1.561-2.814l-.023-.21V8.123a8.48,8.48,0,0,0-.613-2.814,1.764,1.764,0,0,1-1.35-1.6,2.327,2.327,0,0,0-.361-1.1A2.835,2.835,0,0,1,28.8,1.9c-.165.674-.359,1.679-.422,2.193a21.3,21.3,0,0,1-.514,3.146,1.813,1.813,0,0,1-1.6,1.372A2.093,2.093,0,0,1,24.8,7.861a7.046,7.046,0,0,0-2.1-1.353,3.67,3.67,0,0,1-1.43-.95A.932.932,0,0,1,21.1,4.8c.106-.469.528-.7.9-.906.053-.029.187-.1.283-.163a1.624,1.624,0,0,1,.133-1.134,2.954,2.954,0,0,1-.461.036,2.373,2.373,0,0,1-.661-.085,2.652,2.652,0,0,1-.836-.428.668.668,0,0,0-.467-.187,1.814,1.814,0,0,0-.3.03,3.328,3.328,0,0,1-.547.05,2.267,2.267,0,0,1-1.27-.374,1.127,1.127,0,0,0-.167-.09l0,0a.336.336,0,0,0-.06.021c-.165.067-.267.424-.349.711l0,.011-.005.019c-.042.144-.078.268-.121.377a1.721,1.721,0,0,1-.578.692l-.008.007a1.34,1.34,0,0,0-.637,1.129A1.172,1.172,0,0,1,14.784,5.8a1.618,1.618,0,0,1-.986-.37,3.292,3.292,0,0,0-1.328-.822c-.19,0-.476.172-.9.541a.817.817,0,0,0-.325.685,2.336,2.336,0,0,1-.24.9A1.736,1.736,0,0,1,9.352,7.768c-.061,0-.129,0-.214-.005l-.035,0H9.071l-.058,0a1.406,1.406,0,0,0,0,.46v.013a1.37,1.37,0,0,1-.117.891,1.311,1.311,0,0,1-.263.308l-.009.008c-.033.029-.1.082-.228.523A2.146,2.146,0,0,1,6.6,11.36l-.006,0a4.449,4.449,0,0,0-.464.135c-.132.05-.242.09-.332.122l-.028.01a1.768,1.768,0,0,0-.753.458,2.566,2.566,0,0,1-1.147.526,1.108,1.108,0,0,0-.573.248,2.782,2.782,0,0,1-1.481.752c-.282.058-.282.058-.4.392a3.567,3.567,0,0,0,.243,2.375l.061.16a1.383,1.383,0,0,1-.206,1.421l-.006.009a.037.037,0,0,0,0,.008,2.109,2.109,0,0,0,.37.386,5.569,5.569,0,0,1,1.163,2.094l0,.006a8.719,8.719,0,0,0,.808,1.7A4.287,4.287,0,0,1,4.7,25.088a1.183,1.183,0,0,1-.332.582,1.844,1.844,0,0,0,1.2.309c.06,0,.124,0,.208,0a1.31,1.31,0,0,0,.8-.338,3.74,3.74,0,0,1,2.778-1.249c.177-.013.351-.02.533-.02.137,0,.255,0,.356.007h.025c.086,0,.149,0,.2,0a.535.535,0,0,0,.268-.048c.076-.036.106-.088.188-.329l.006-.017.011-.03c.028-.082.052-.15.082-.214.918-2.069,5.193-2.174,6.041-2.174.111,0,.215,0,.311.005,1.709.05,2.9.8,3.19,1.993a2.482,2.482,0,0,0,.866,1.383,2.587,2.587,0,0,1,1.643-1.064.837.837,0,0,1,.6.239.916.916,0,0,1,.254.671v.175c-.007.591.012.711.268.905a1.746,1.746,0,0,0,.309.184l0,0c.565.282.842.609.791,1.617-.017.329.057.394.58.7l.014.008a5.218,5.218,0,0,1,.773.518.784.784,0,0,0,.545.167,4.214,4.214,0,0,0,.6-.062l.013,0A4.481,4.481,0,0,1,28.5,28.938Z" transform="translate(0.296 0.241)" fill="#1f1f1f" stroke="#252525" stroke-miterlimit="10" stroke-width="0.5"/>
  </g>
</svg>
