<svg xmlns="http://www.w3.org/2000/svg" xmlns:xlink="http://www.w3.org/1999/xlink" width="100" height="100" viewBox="0 0 100 100"><g><g transform="translate(50 50) scale(0.69 0.69) rotate(0) translate(-50 -50)" style="fill:#1A1A1A"><svg fill="#1A1A1A" xmlns="http://www.w3.org/2000/svg" viewBox="0 0 32 32" x="0px" y="0px"><title>023-Lock</title><g data-name="023-Lock"><path d="M24,15V9A8,8,0,0,0,8,9v6a3,3,0,0,0-3,3V28a3,3,0,0,0,3,3H24a3,3,0,0,0,3-3V18A3,3,0,0,0,24,15ZM10,9A6,6,0,0,1,22,9v6H10ZM25,28a1,1,0,0,1-1,1H8a1,1,0,0,1-1-1V18a1,1,0,0,1,1-1H24a1,1,0,0,1,1,1Z"></path><path d="M16,20a3,3,0,1,0,3,3A3,3,0,0,0,16,20Zm0,4a1,1,0,1,1,1-1A1,1,0,0,1,16,24Z"></path></g></svg></g></g></svg>