<svg id="noun_Egg_2373029_1f1f1f" xmlns="http://www.w3.org/2000/svg" width="79" height="70" viewBox="0 0 79 70">
  <path id="Shape" d="M49.595,70c-14.813,0-21.2-9.244-23.691-14.754a6.386,6.386,0,0,0-4.647-3.655A26.015,26.015,0,0,1,26.16,0,26.843,26.843,0,0,1,38.713,3.289a6.921,6.921,0,0,0,3.271.82,6.931,6.931,0,0,0,3.554-.976A22.29,22.29,0,0,1,56.957,0,22.855,22.855,0,0,1,61.081.38,21.874,21.874,0,0,1,75.172,34.263a6.523,6.523,0,0,0-.9,5.127A25.02,25.02,0,0,1,49.595,70ZM26.16,3.6a22.421,22.421,0,0,0-4.237,44.462A10,10,0,0,1,29.2,53.773C31.8,59.536,37.456,66.4,49.595,66.4A21.43,21.43,0,0,0,70.744,40.18a10.1,10.1,0,0,1,1.443-7.946,18.117,18.117,0,0,0,3.1-12.261A18.32,18.32,0,0,0,60.424,3.914,19.226,19.226,0,0,0,56.957,3.6,18.625,18.625,0,0,0,47.4,6.215,10.567,10.567,0,0,1,41.985,7.7a10.579,10.579,0,0,1-4.994-1.25A23.163,23.163,0,0,0,26.16,3.6Zm19.617,43.54A14.532,14.532,0,1,1,60.392,32.6,14.589,14.589,0,0,1,45.778,47.136Zm0-25.467a10.936,10.936,0,1,0,11,10.936A10.979,10.979,0,0,0,45.778,21.668Z" fill="#1f1f1f"/>
</svg>
