<svg id="noun_Meat_1171611_1f1f1f" xmlns="http://www.w3.org/2000/svg" width="93.004" height="63" viewBox="0 0 93.004 63">
  <path id="Shape" d="M35.224,63a58.471,58.471,0,0,1-13.61-1.485c-9.964-2.4-16.621-7.559-19.787-15.343A24.509,24.509,0,0,1,0,37.3l.245-11.44a1.4,1.4,0,0,1,.078-.409l0-.005.01-.032A26.42,26.42,0,0,1,5.006,11.584,26.808,26.808,0,0,1,27.073,0a27.254,27.254,0,0,1,6.366.758c.424.1.9.226,1.455.381A87.477,87.477,0,0,1,47.437,6.233l.011,0a75.063,75.063,0,0,0,14.187,5.511,66.682,66.682,0,0,0,10.426,1.339h.017l.052,0a68.129,68.129,0,0,1,10.732,1.39c.427.106.8.2,1.1.285l-.012.042a1.933,1.933,0,0,1,.408.076,12.059,12.059,0,0,1,7.5,16.733l.517,2.166c.6,2.3-.746,6.874-6.52,12.214C81.469,50.052,73.147,55.746,58.4,59.851A92.815,92.815,0,0,1,35.224,63ZM3.2,38.157h0a21.3,21.3,0,0,0,1.51,6.888c2.78,6.821,8.716,11.367,17.645,13.511A55.287,55.287,0,0,0,35.2,59.93a89.287,89.287,0,0,0,22.364-3.011c13.435-3.744,21.112-8.7,25.186-12.2,5.144-4.421,6.6-8.146,6.647-9.651l-.007.007A11.915,11.915,0,0,1,87.717,36.5,103.708,103.708,0,0,1,58.651,49.512,91.77,91.77,0,0,1,35.5,52.646a58.735,58.735,0,0,1-13.624-1.47C12.978,49.037,6.7,44.657,3.2,38.157ZM26.865,3.011A23.526,23.526,0,0,0,7.575,13.294,22.616,22.616,0,0,0,4.959,34.706c2.78,6.819,8.718,11.363,17.649,13.507A55.434,55.434,0,0,0,35.491,49.6a89.135,89.135,0,0,0,22.325-3.024A100.468,100.468,0,0,0,86,33.96a8.521,8.521,0,0,0,2.865-3.146,9.252,9.252,0,0,0,.353-7.841,9.108,9.108,0,0,0-5.794-5.182c-.568-.166-.92-.26-1.3-.346a65.163,65.163,0,0,0-10.269-1.316l-.022,0-.047,0h-.006a68.921,68.921,0,0,1-10.891-1.417A77.54,77.54,0,0,1,46.106,8.992l0,0-.009,0A83.547,83.547,0,0,0,34,4.063c-.407-.117-.842-.232-1.292-.343A25.1,25.1,0,0,0,26.865,3.011Z" fill="#1f1f1f"/>
  <path id="Path" d="M9.08,11.993.716,23.182a1.5,1.5,0,0,0,.353,2.126,1.6,1.6,0,0,0,.922.285,1.579,1.579,0,0,0,1.272-.628l8.6-11.5,30,1.905a.951.951,0,0,0,.1,0,1.548,1.548,0,0,0,1.566-1.422,1.532,1.532,0,0,0-1.464-1.616L11.835,10.418,2.746.51A1.606,1.606,0,0,0,.528.385,1.482,1.482,0,0,0,.4,2.53Z" transform="translate(20.777 12.797)" fill="#1f1f1f"/>
</svg>
