<svg xmlns="http://www.w3.org/2000/svg" width="74" height="69" viewBox="0 0 74 69">
  <g id="noun_vegan_924440_1f1f1f" transform="translate(0.001)">
    <path id="Shape" d="M33.92,69h-.014c-3.783-1.106-16.752-5.389-24.8-14.068-13.243-13.169-12-32.811,3.4-53.89L13.255,0,14.44.6a1.462,1.462,0,0,1,.293.148l.009.005a1.479,1.479,0,0,0,.29.144h.221v.149A91.089,91.089,0,0,1,37.014,16.376a75.665,75.665,0,0,1,9.418-7.629,115.086,115.086,0,0,1,12.86-7.629V.968l.148.075c.047-.024.1-.052.153-.085a2.557,2.557,0,0,1,.439-.213l1.111-.6.74,1.042A75.193,75.193,0,0,1,70.6,16.783a45.465,45.465,0,0,1,3.362,14.525,31.231,31.231,0,0,1-2.009,12.976,30.765,30.765,0,0,1-7.4,10.945A45.325,45.325,0,0,1,52.067,64.1a67.155,67.155,0,0,1-12.092,4.68c-.066.131-5.025.209-6.019.223ZM58.4,4.912c-26.154,13.973-31.381,28.6-31.161,38.408-.257,12.083,7.8,22.417,8.141,22.851C48.091,47.3,53.958,25.576,58.4,4.912Zm2.96.67C57,25.783,51.281,47.077,39.161,65.948c4.519-1.24,15.847-4.973,23.388-12.877C69.407,46.4,78.372,31.349,61.365,5.583ZM13.107,5.36c-17.455,25.62-8.7,40.75-1.924,47.489C16.993,59.07,25.1,62.8,30.871,64.832A45.773,45.773,0,0,1,26.7,56.3a37.582,37.582,0,0,1-2.341-10.6C18.767,31.763,15.533,17.487,13.107,5.36Zm2.887-.6A259.786,259.786,0,0,0,24.58,38.036c1.13-6.818,4.616-13.4,10.362-19.576A87.392,87.392,0,0,0,15.994,4.764Z" fill="#1f1f1f"/>
  </g>
</svg>
