<svg xmlns="http://www.w3.org/2000/svg" width="26.362" height="33.482" viewBox="0 0 26.362 33.482">
  <g id="noun_Doctor_1396017_1f1f1f" transform="translate(-0.338 -0.259)">
    <path id="Shape" d="M15.15,33.483A8.051,8.051,0,0,1,7.05,25.5V16.335a8.21,8.21,0,0,1-5.041-2.691A7.987,7.987,0,0,1,0,8.352V0H4.763V2.218H2.25V8.352a5.907,5.907,0,0,0,11.813,0V2.218H11.55V0h4.763V8.352a7.991,7.991,0,0,1-1.995,5.281,8.211,8.211,0,0,1-5.018,2.7V25.5a5.851,5.851,0,0,0,11.7,0V20.548a4.23,4.23,0,1,1,2.25,0V25.5A8.051,8.051,0,0,1,15.15,33.483Zm6.937-18.922a2,2,0,0,0-.759.149A1.953,1.953,0,0,0,20.1,16.52a1.993,1.993,0,0,0,3.824.75,1.932,1.932,0,0,0-.431-2.135A1.989,1.989,0,0,0,22.087,14.561Z" transform="translate(0.337 0.259)" fill="#1f1f1f"/>
  </g>
</svg>
