<svg xmlns="http://www.w3.org/2000/svg" width="83.895" height="93.832" viewBox="0 0 83.895 93.832">
  <g id="noun_boy_2374482_1f1f1f" transform="translate(-0.079)">
    <path id="Path" d="M5.333,0A6.777,6.777,0,0,0,.521,1.984a1.763,1.763,0,0,0,0,2.5,1.783,1.783,0,0,0,2.514,0,3.26,3.26,0,0,1,4.6,0,1.774,1.774,0,0,0,2.514-2.5A6.778,6.778,0,0,0,5.333,0Z" transform="translate(19.287 49.304)" fill="#1f1f1f"/>
    <path id="Path-2" data-name="Path" d="M.521,1.98a1.763,1.763,0,0,0,0,2.5,1.783,1.783,0,0,0,2.514,0,3.264,3.264,0,0,1,4.6,0,1.774,1.774,0,1,0,2.514-2.5A6.836,6.836,0,0,0,.521,1.98Z" transform="translate(54.101 49.307)" fill="#1f1f1f"/>
    <path id="Path-3" data-name="Path" d="M9.883.518A4.823,4.823,0,0,1,6.459,1.93,4.821,4.821,0,0,1,3.035.518a1.784,1.784,0,0,0-2.514,0,1.763,1.763,0,0,0,0,2.5A8.362,8.362,0,0,0,6.459,5.469,8.363,8.363,0,0,0,12.4,3.021a1.763,1.763,0,0,0,0-2.5A1.784,1.784,0,0,0,9.883.518Z" transform="translate(35.568 71.469)" fill="#1f1f1f"/>
    <path id="Shape" d="M41.951,93.832h0A33.524,33.524,0,0,1,17.972,83.805,33.914,33.914,0,0,1,8.637,65.953a9.8,9.8,0,0,1-.556-19.384V28.949a6.2,6.2,0,0,0-1.157.875,3.053,3.053,0,0,1-3.8.389,3.018,3.018,0,0,1-1.275-3.58l.866-2.551a13.362,13.362,0,0,1,2.035-3.816c.986-9.187,7.382-15.657,18.5-18.71A43.738,43.738,0,0,1,34.822,0,45.311,45.311,0,0,1,49.36,2.417l11.161,3.77A11.476,11.476,0,0,1,75.813,16.968v29.6a9.8,9.8,0,0,1-.5,19.378A33.379,33.379,0,0,1,65.894,83.96,33.726,33.726,0,0,1,41.951,93.832ZM11.637,28.115V59.791A30.416,30.416,0,0,0,20.5,81.32a30.261,30.261,0,0,0,42.876.137,29.9,29.9,0,0,0,8.878-21.332V43.69a15.106,15.106,0,0,1-9.463-4.9A14.941,14.941,0,0,1,58.946,28.78v-4.8A34.736,34.736,0,0,1,40.187,34.14a35.47,35.47,0,0,1-6.59.621A34.907,34.907,0,0,1,14.542,29.1,6.188,6.188,0,0,0,11.637,28.115ZM8.081,50.2A6.265,6.265,0,0,0,8.17,62.262c-.06-.837-.089-1.669-.089-2.471Zm67.732,0v9.925c0,.686-.023,1.383-.069,2.13A6.264,6.264,0,0,0,75.813,50.2ZM64.36,9.065a7.981,7.981,0,0,0-2,.261L62.5,28.78a11.574,11.574,0,0,0,9.755,11.342V16.968a7.761,7.761,0,0,0-3.544-6.574A7.881,7.881,0,0,0,64.36,9.065ZM11.182,24.554a9.725,9.725,0,0,1,5.3,1.58A31.353,31.353,0,0,0,33.6,31.221a31.967,31.967,0,0,0,5.92-.558A31.314,31.314,0,0,0,58.938,18.485L58.8,9.342,48.217,5.767A41.8,41.8,0,0,0,34.82,3.54,40.138,40.138,0,0,0,24.2,4.967C16.353,7.122,11.327,10.993,9.262,16.473c.35-.183.658-.329.941-.449a13.463,13.463,0,0,1,5.318-1.085,13.649,13.649,0,0,1,5.706,1.256,9.862,9.862,0,0,0,4.173.916,10.012,10.012,0,0,0,7.489-3.334l.44-.495a1.783,1.783,0,0,1,2.51-.153,1.762,1.762,0,0,1,.153,2.5l-.44.5a13.588,13.588,0,0,1-10.163,4.523A13.381,13.381,0,0,1,19.725,19.4a10.06,10.06,0,0,0-4.2-.926,9.958,9.958,0,0,0-9.433,6.737l-.346,1.018A9.616,9.616,0,0,1,11.182,24.554Z" transform="translate(0.079 0)" fill="#1f1f1f"/>
  </g>
</svg>
