<svg xmlns="http://www.w3.org/2000/svg" width="83.819" height="96.898" viewBox="0 0 83.819 96.898">
  <g id="noun_girl_2374468_1f1f1f" transform="translate(-0.154)">
    <path id="Path" d="M15.8.539a8.943,8.943,0,0,1-12.672,0,1.825,1.825,0,0,0-2.589,0,1.844,1.844,0,0,0,0,2.6A12.556,12.556,0,0,0,9.462,6.846a12.556,12.556,0,0,0,8.925-3.707A1.835,1.835,0,0,0,15.8.539Z" transform="translate(32.603 72.675)" fill="#fff"/>
    <path id="Shape" d="M68.853,96.9A43.032,43.032,0,0,1,57.581,95.36,43.813,43.813,0,0,1,47.25,91.148a32.513,32.513,0,0,1-5.34.44,33.134,33.134,0,0,1-5.341-.44A43.947,43.947,0,0,1,26.238,95.36,43.309,43.309,0,0,1,14.907,96.9,38.525,38.525,0,0,1,1.183,94.409a1.841,1.841,0,0,1-.711-2.952c1.97-2.192,3.207-6.059,3.78-11.823a135.175,135.175,0,0,0,.183-17.68,9.659,9.659,0,0,1-.651-13.388c-.6-12.338-1.034-21.251,3.1-29.327.233-.454.475-.9.719-1.319a17.218,17.218,0,0,1,6-6.07,18.165,18.165,0,0,1,8.28-2.567,25.26,25.26,0,0,1,8.275-6.645,24.6,24.6,0,0,1,10.2-2.61C40.831.009,41.36,0,41.93,0A43.456,43.456,0,0,1,63.646,5.818,32.976,32.976,0,0,1,76.938,19.239c4.131,8.075,3.7,16.987,3.1,29.322a9.681,9.681,0,0,1,2.388,6.361,9.578,9.578,0,0,1-.819,3.9,9.692,9.692,0,0,1-2.22,3.138,135.005,135.005,0,0,0,.183,17.677c.574,5.765,1.811,9.632,3.781,11.823a1.843,1.843,0,0,1-.712,2.953A38.743,38.743,0,0,1,68.853,96.9Zm6.787-32.75a9.508,9.508,0,0,1-1.5.334A32.94,32.94,0,0,1,52.684,89.755a43.016,43.016,0,0,0,5.973,2.086,39.651,39.651,0,0,0,10.263,1.4,34.881,34.881,0,0,0,10.137-1.5c-1.559-2.67-2.569-6.314-3.09-11.137a120.288,120.288,0,0,1-.328-16.463Zm-67.46,0a120.346,120.346,0,0,1-.328,16.461c-.52,4.824-1.53,8.467-3.088,11.137a34.992,34.992,0,0,0,10.112,1.475A41.577,41.577,0,0,0,31.13,89.753,32.941,32.941,0,0,1,9.685,64.482,9.627,9.627,0,0,1,8.18,64.148ZM27.7,36.39c-3.108,5.808-7.967,9.185-14.856,10.323V58.718a29.068,29.068,0,1,0,58.136,0V51.43c-.324,0-.608,0-.87,0a67.2,67.2,0,0,1-29.495-6.408A53.935,53.935,0,0,1,27.7,36.39ZM74.641,49.236v.28q0,.036,0,.073v9.129c0,.583-.019,1.208-.057,1.909a5.984,5.984,0,0,0,.057-11.39Zm-65.461,0a5.984,5.984,0,0,0,.057,11.39c-.039-.671-.057-1.3-.057-1.909Zm17.957-17.8A1.836,1.836,0,0,1,28.458,32c3.527,3.695,16.959,15.75,41.7,15.752.239,0,.482,0,.823,0V43.575a1.831,1.831,0,1,1,3.662,0v1.87A9.676,9.676,0,0,1,76.487,46c.571-12.7.307-18.995-2.807-25.084A29.38,29.38,0,0,0,61.818,9.005,39.783,39.783,0,0,0,41.927,3.677c-.452,0-.935.009-1.436.026a21.381,21.381,0,0,0-16.245,8.505,1.819,1.819,0,0,1-1.415.719h-.025a14.071,14.071,0,0,0-12.038,6.841c-.226.391-.437.778-.626,1.15C7.025,27.013,6.761,33.305,7.331,46a9.546,9.546,0,0,1,1.849-.559v-.337a1.833,1.833,0,0,1,1.633-1.828c7.32-.8,11.969-4.2,14.63-10.7A1.824,1.824,0,0,1,26.8,31.47,1.772,1.772,0,0,1,27.137,31.438Z" transform="translate(0.155 0)" fill="#fff"/>
    <path id="Path-2" data-name="Path" d="M.536,1.96a1.844,1.844,0,0,0,0,2.6,1.825,1.825,0,0,0,2.589,0,3,3,0,0,1,4.257,0,1.826,1.826,0,0,0,2.59,0,1.844,1.844,0,0,0,0-2.6A6.659,6.659,0,0,0,.536,1.96Z" transform="translate(19.643 51.309)" fill="#fff"/>
    <path id="Path-3" data-name="Path" d="M9.972,4.56a1.844,1.844,0,0,0,0-2.6,6.659,6.659,0,0,0-9.436,0,1.844,1.844,0,0,0,0,2.6,1.825,1.825,0,0,0,2.589,0,3,3,0,0,1,4.257,0,1.826,1.826,0,0,0,2.59,0Z" transform="translate(53.979 51.309)" fill="#fff"/>
  </g>
</svg>
