<svg xmlns="http://www.w3.org/2000/svg" xmlns:xlink="http://www.w3.org/1999/xlink" width="23" height="19" viewBox="0 0 23 19">
    <defs>
        <path id="a" d="M.002.313h7.625V7.69H.002z"/>
        <path id="c" d="M.04.077h19.176v18.188H.04z"/>
        <path id="d" d="M.432.06h19.176v18.187H.432z"/>
        <path id="e" d="M.92.166h24.581v4H.92z"/>
        <path id="g" d="M0 .166h33.5v4H0z"/>
        <path id="i" d="M.92 0h24.581v4H.92z"/>
        <path id="k" d="M0 0h23v18.863H0z"/>
    </defs>
    <g fill="none" fill-rule="evenodd">
        <path fill="#231F20" d="M-200.838-6.206v9.402c1.347-1.633 2.811-2.323 5.083-2.323 3.85 0 7.47 2.36 7.47 8.387v9.946h-7.046v-9.91c-.078-2.034-1.157-2.65-2.581-2.65-1.386 0-2.926.98-2.965 3.085v9.475H-208V-6.206h7.162z"/>
        <g transform="translate(-186.571 -7)">
            <mask id="b" fill="#fff">
                <use xlink:href="#a"/>
            </mask>
            <path fill="#FA1C41" d="M3.873.314c1.896.038 3.754 1.26 3.754 3.668 0 2.445-1.858 3.668-3.754 3.706C1.937 7.726.002 6.466.002 3.982S1.937.276 3.872.314" mask="url(#b)"/>
        </g>
        <path fill="#231F20" d="M-170.82 13.225c0 1.11 1.067 1.54 2.134 1.54 1.066 0 2.133-.465 2.133-1.361 0-1.074-.99-1.217-2.02-1.325-3.617-.393-8.265-1.039-8.265-5.264 0-4.012 4.076-5.874 8.19-5.874 4.19 0 8.303 2.077 8.112 5.874h-5.675c-.114-.86-1.218-1.326-2.285-1.29-1.028.036-1.942.43-1.942 1.146-.115 1.075 1.256 1.11 2.132 1.218 4.077.394 8.418.931 8.304 5.515-.114 3.904-4.227 5.802-8.418 5.802-4.19 0-8.608-1.003-8.723-5.981h6.324zM-178.857 19.206h-6.857l.04-17.47h6.817z"/>
        <g>
            <g transform="translate(63 -5.166)">
                <mask id="f" fill="#fff">
                    <use xlink:href="#e"/>
                </mask>
                <path fill="#000" d="M2.387 4.166h21.646c.81 0 1.468-.896 1.468-2s-.656-2-1.468-2H2.387c-.81 0-1.467.896-1.467 2s.656 2 1.467 2" mask="url(#f)"/>
            </g>
            <g transform="translate(55 4.834)">
                <mask id="h" fill="#fff">
                    <use xlink:href="#g"/>
                </mask>
                <path fill="#000" d="M31.5.166H2a2 2 0 0 0 0 4h29.5a2 2 0 0 0 0-4" mask="url(#h)"/>
            </g>
            <g transform="translate(63 14.834)">
                <mask id="j" fill="#fff">
                    <use xlink:href="#i"/>
                </mask>
                <path fill="#000" d="M24.032 0H2.387C1.577 0 .92.896.92 2s.657 2 1.467 2h21.646c.81 0 1.468-.896 1.468-2s-.658-2-1.469-2" mask="url(#j)"/>
            </g>
        </g>
        <g>
            <g>
                <mask id="l" fill="#fff">
                    <use xlink:href="#k"/>
                </mask>
                <path fill="#000" d="M21.683 17.544H1.313v-7.51c.265.13.55.216.842.263h.003a2.958 2.958 0 0 0 .466.043h6.13v.254c0 .81.657 1.47 1.464 1.47h2.647c.807 0 1.463-.66 1.463-1.47v-.254h6.048c.098 0 .195-.007.291-.018.067-.006.133-.018.199-.03l.04-.007c.272-.05.535-.134.781-.255l-.004 7.514zM10.067 10.34v-.913c0-.084.068-.151.15-.151h2.649c.083 0 .15.067.15.15V10.595a.151.151 0 0 1-.15.152h-2.648a.152.152 0 0 1-.151-.152v-.254zm-8.75-5.928h20.37l-.008 3.456c0 .604-.621 1.153-1.303 1.153h-6.104a1.466 1.466 0 0 0-1.406-1.064h-2.648c-.667 0-1.231.45-1.407 1.064H2.624c-.595 0-1.194-.45-1.312-.976l.005-3.633zm6.125-2.501c0-.327.264-.592.59-.592h6.937c.325 0 .59.265.59.592v1.183H7.441V1.911zM23 4.396c0-.718-.544-1.302-1.214-1.302H16.87V1.911C16.87.857 16.017 0 14.97 0H8.032A1.909 1.909 0 0 0 6.13 1.91v1.183H1.214C.544 3.094 0 3.678 0 4.396V17.56c0 .718.544 1.302 1.214 1.302h20.572c.67 0 1.214-.584 1.214-1.302V6.336l-.005.007L23 4.396z" mask="url(#l)"/>
            </g>
        </g>
    </g>
</svg>
