<svg xmlns="http://www.w3.org/2000/svg" xmlns:xlink="http://www.w3.org/1999/xlink" width="23" height="19" viewBox="0 0 23 19">
    <defs>
        <path id="a" d="M0 0h23v18.863H0z"/>
    </defs>
    <g fill="none" fill-rule="evenodd">
        <path fill="#FEFEFE" d="M-1064-46H376v4998h-1440z"/>
        <path fill="#FEFEFE" fill-rule="nonzero" d="M-1064-46H376V66h-1440z"/>
        <path fill="#FFF" fill-rule="nonzero" d="M-1064-46H376V66h-1440z"/>
        <g transform="translate(0 -14)">
            <g transform="translate(0 14)">
                <mask id="b" fill="#fff">
                    <use xlink:href="#a"/>
                </mask>
                <path fill="#FA1C41" d="M21.683 17.544H1.313v-7.51c.265.13.55.216.842.263h.003a2.958 2.958 0 0 0 .466.043h6.13v.254c0 .81.657 1.47 1.464 1.47h2.647c.807 0 1.463-.66 1.463-1.47v-.254h6.048c.098 0 .195-.007.291-.018.067-.006.133-.018.199-.03l.04-.007c.272-.05.535-.134.781-.255l-.004 7.514zM10.067 10.34v-.913c0-.084.068-.151.15-.151h2.649c.083 0 .15.067.15.15V10.595a.151.151 0 0 1-.15.152h-2.648a.152.152 0 0 1-.151-.152v-.254zm-8.75-5.928h20.37l-.008 3.456c0 .604-.621 1.153-1.303 1.153h-6.104a1.466 1.466 0 0 0-1.406-1.064h-2.648c-.667 0-1.231.45-1.407 1.064H2.624c-.595 0-1.194-.45-1.312-.976l.005-3.633zm6.125-2.501c0-.327.264-.592.59-.592h6.937c.325 0 .59.265.59.592v1.183H7.441V1.911zM23 4.396c0-.718-.544-1.302-1.214-1.302H16.87V1.911C16.87.857 16.017 0 14.97 0H8.032A1.909 1.909 0 0 0 6.13 1.91v1.183H1.214C.544 3.094 0 3.678 0 4.396V17.56c0 .718.544 1.302 1.214 1.302h20.572c.67 0 1.214-.584 1.214-1.302V6.336l-.005.007L23 4.396z" mask="url(#b)"/>
            </g>
            <circle cx="28" cy="12" r="12" fill="#FA1C41" fill-rule="nonzero"/>
        </g>
    </g>
</svg>
