<svg xmlns="http://www.w3.org/2000/svg" width="32" height="32" viewBox="0 0 32 32">
  <g id="Group_1" data-name="Group 1" transform="translate(-240 -431)">
    <g id="Bg_Copy_9" data-name="Bg Copy 9" transform="translate(240 431)" fill="#fff" stroke="#d5d5d5" stroke-miterlimit="10" stroke-width="1">
      <rect width="32" height="32" rx="4" stroke="none"/>
      <rect x="0.5" y="0.5" width="31" height="31" rx="3.5" fill="none"/>
    </g>
    <path id="Path" d="M16.716.394,6.783,10.563l-4.4-4.5a1.357,1.357,0,0,0-1.973,0,1.435,1.435,0,0,0,0,2.02L5.78,13.575A1.351,1.351,0,0,0,6.749,14a1.3,1.3,0,0,0,.969-.425L16.39,4.7l2.195-2.247a1.435,1.435,0,0,0,0-2.02A1.265,1.265,0,0,0,16.716.394Z" transform="translate(248 440)" fill="#fa1c41"/>
  </g>
</svg>
