<svg xmlns="http://www.w3.org/2000/svg" width="19.048" height="16.056" viewBox="0 0 19.048 16.056">
  <g id="noun_pills_521111" transform="translate(0 -0.944)">
    <path id="Shape" d="M13.868,16.056A5.1,5.1,0,0,1,10.2,14.511a5.242,5.242,0,0,1-1.1-1.647L7.5,14.5a4.339,4.339,0,0,1-6.211,0,4.527,4.527,0,0,1,0-6.319L8.042,1.309a4.339,4.339,0,0,1,6.211,0,4.52,4.52,0,0,1,1.1,4.42,5.166,5.166,0,0,1,2.179,1.326,5.344,5.344,0,0,1,0,7.457A5.1,5.1,0,0,1,13.868,16.056ZM10.669,8.4a4.118,4.118,0,0,0,.392,5.242,3.915,3.915,0,0,0,5.153.4ZM5.02,6.127,2.141,9.057a3.28,3.28,0,0,0,0,4.576,3.142,3.142,0,0,0,4.5,0l2.1-2.136A5.414,5.414,0,0,1,8.757,9.93L5.02,6.127Zm8.848.616a3.891,3.891,0,0,0-2.344.783l5.543,5.641a4.117,4.117,0,0,0-.392-5.241A3.913,3.913,0,0,0,13.868,6.743Zm-2.721-5.51A3.127,3.127,0,0,0,8.9,2.181L5.877,5.255,9.155,8.591A5.243,5.243,0,0,1,10.2,7.054,5.1,5.1,0,0,1,13.868,5.51c.1,0,.19,0,.281.008A3.253,3.253,0,0,0,13.4,2.181,3.135,3.135,0,0,0,11.147,1.233Z" transform="translate(0 0.944)" fill="#252525"/>
  </g>
</svg>
