<svg xmlns="http://www.w3.org/2000/svg" width="21" height="23.52" viewBox="0 0 21 23.52">
  <g id="noun_Download_2642668" transform="translate(0 -0.336)">
    <path id="Path" d="M5.6,0a.8.8,0,0,0-.789.811V16.468L1.373,13.037a.8.8,0,1,0-1.131,1.13l4.8,4.8a.8.8,0,0,0,1.134,0l4.8-4.8a.8.8,0,1,0-1.132-1.13L6.411,16.467V.811A.8.8,0,0,0,5.6,0Z" transform="translate(4.884 0.336)" fill="#fff"/>
    <path id="Path-2" data-name="Path" d="M.808,0A.8.8,0,0,0,0,.782V16.494a.8.8,0,0,0,.808.786H20.191a.82.82,0,0,0,.572-.23A.775.775,0,0,0,21,16.494V.782A.8.8,0,0,0,20.191,0H13.73V1.569h5.653V15.708H1.615V1.569H7.269V0Z" transform="translate(0 6.576)" fill="#fff"/>
  </g>
</svg>
