<svg xmlns="http://www.w3.org/2000/svg" width="17.855" height="21.563" viewBox="0 0 17.855 21.563">
  <g id="noun_FAQ_1355608" transform="translate(-0.073 -0.061)">
    <path id="Shape" d="M4.046,11A1.739,1.739,0,0,1,2.334,9.24V7.981A2.951,2.951,0,0,1,4.323,5.192a.854.854,0,0,0,.562-.838.881.881,0,0,0-.857-.834A.823.823,0,0,0,3.295,4,1.712,1.712,0,0,1,1.874,5.079c-.053.005-.108.008-.161.008A1.7,1.7,0,0,1,.281,4.293,1.8,1.8,0,0,1,.211,2.48,4.281,4.281,0,0,1,4.018,0h.028a4.328,4.328,0,0,1,4.26,4.242A4.378,4.378,0,0,1,5.76,8.384V9.24A1.739,1.739,0,0,1,4.046,11ZM4.018,2.409a1.97,1.97,0,0,1,.643,3.817,1.852,1.852,0,0,0-1.255,1.76V9.24a.665.665,0,0,0,.321.571.628.628,0,0,0,.643,0,.665.665,0,0,0,.321-.571V8.006a.553.553,0,0,1,.261-.473A.7.7,0,0,1,5.06,7.48,3.273,3.273,0,0,0,7.186,3.848,3.2,3.2,0,0,0,4.043,1.1H4.021A3.161,3.161,0,0,0,1.177,2.955a.67.67,0,0,0-.055.743.641.641,0,0,0,.557.33.634.634,0,0,0,.1-.008.646.646,0,0,0,.528-.511A1.913,1.913,0,0,1,4.018,2.409Z" transform="translate(4.825 0.061)" fill="#252525"/>
    <path id="Shape-2" data-name="Shape" d="M1.713,3.52A1.739,1.739,0,0,1,0,1.76,1.739,1.739,0,0,1,1.713,0,1.739,1.739,0,0,1,3.426,1.76,1.739,1.739,0,0,1,1.713,3.52Zm0-2.42a.66.66,0,0,0,0,1.32v.006a.643.643,0,0,0,.457-.2.673.673,0,0,0,.185-.471A.653.653,0,0,0,1.713,1.1Z" transform="translate(7.161 11.765)" fill="#252525"/>
    <path id="Path" d="M6.711,15.239a1.019,1.019,0,0,0,.428.095,1.009,1.009,0,0,0,.687-.275l3.242-3.005H15.63a2.26,2.26,0,0,0,2.225-2.288V2.286A2.26,2.26,0,0,0,15.63,0h-1.4a.543.543,0,0,0-.535.55.543.543,0,0,0,.535.55h1.4a1.173,1.173,0,0,1,1.154,1.188v7.48a1.172,1.172,0,0,1-1.154,1.181H10.87a.527.527,0,0,0-.358.141l-3.343,3.08V11.5a.558.558,0,0,0-.157-.389.528.528,0,0,0-.379-.161H2.225A1.172,1.172,0,0,1,1.071,9.768V2.288A1.173,1.173,0,0,1,2.225,1.1H5.206A.543.543,0,0,0,5.741.55.543.543,0,0,0,5.206,0H2.225A2.26,2.26,0,0,0,0,2.29V9.77a2.26,2.26,0,0,0,2.225,2.284H6.1v2.215A1.051,1.051,0,0,0,6.711,15.239Z" transform="translate(0.073 6.289)" fill="#252525"/>
  </g>
</svg>
