<svg xmlns="http://www.w3.org/2000/svg" width="25.389" height="15.022" viewBox="0 0 25.389 15.022">
  <g id="Group_2" data-name="Group 2" transform="translate(-10 -37.395)">
    <path id="Fill_1" data-name="Fill 1" d="M3.788,0V5.455A3.027,3.027,0,0,1,6.477,4.107c2.036,0,3.951,1.369,3.951,4.866v5.77H6.7V8.993C6.66,7.814,6.089,7.456,5.336,7.456a1.64,1.64,0,0,0-1.568,1.79v5.5H0V0Z" transform="translate(10 37.674)" fill="#231f20"/>
    <path id="Clip_4" data-name="Clip 4" d="M0,0H4.033V4.279H0Z" transform="translate(21.335 37.395)" fill="none"/>
    <path id="Fill_3" data-name="Fill 3" d="M2.047,0A2,2,0,0,1,4.033,2.128a2,2,0,0,1-1.986,2.15A2,2,0,0,1,0,2.128,1.979,1.979,0,0,1,2.047,0" transform="translate(21.335 37.395)" fill="#fa1c41"/>
    <path id="Clip_4-2" data-name="Clip 4" d="M0,0H4.033V4.279H0Z" transform="translate(21.335 37.395)" fill="none"/>
    <path id="Fill_8" data-name="Fill 8" d="M3.345,7.126c0,.644.564.894,1.128.894S5.6,7.75,5.6,7.23c0-.623-.524-.706-1.068-.769C2.62,6.233.161,5.859.161,3.408.161,1.08,2.317,0,4.493,0,6.709,0,8.885,1.2,8.784,3.408h-3c-.06-.5-.645-.769-1.209-.748-.543.021-1.027.25-1.027.665-.061.624.664.644,1.128.707,2.156.228,4.453.54,4.392,3.2C9.006,9.5,6.83,10.6,4.614,10.6S.061,10.015,0,7.126Z" transform="translate(26.321 41.82)" fill="#231f20"/>
    <path id="Fill_6" data-name="Fill 6" d="M3.627,10.136H0L.021,0H3.627Z" transform="translate(21.787 42.281)" fill="#231f20"/>
  </g>
</svg>
