<svg xmlns="http://www.w3.org/2000/svg" xmlns:xlink="http://www.w3.org/1999/xlink" width="34" height="24" viewBox="0 0 34 24">
    <defs>
        <path id="a" d="M.92.166h24.581v4H.92z"/>
        <path id="c" d="M0 .166h33.5v4H0z"/>
        <path id="e" d="M.92 0h24.581v4H.92z"/>
    </defs>
    <g fill="none" fill-rule="evenodd">
        <g transform="translate(8 -.166)">
            <mask id="b" fill="#fff">
                <use xlink:href="#a"/>
            </mask>
            <path fill="#000" d="M2.387 4.166h21.646c.81 0 1.468-.896 1.468-2s-.656-2-1.468-2H2.387c-.81 0-1.467.896-1.467 2s.656 2 1.467 2" mask="url(#b)"/>
        </g>
        <g transform="translate(0 9.834)">
            <mask id="d" fill="#fff">
                <use xlink:href="#c"/>
            </mask>
            <path fill="#000" d="M31.5.166H2a2 2 0 0 0 0 4h29.5a2 2 0 0 0 0-4" mask="url(#d)"/>
        </g>
        <g transform="translate(8 19.834)">
            <mask id="f" fill="#fff">
                <use xlink:href="#e"/>
            </mask>
            <path fill="#000" d="M24.032 0H2.387C1.577 0 .92.896.92 2s.657 2 1.467 2h21.646c.81 0 1.468-.896 1.468-2s-.658-2-1.469-2" mask="url(#f)"/>
        </g>
    </g>
</svg>
