<svg xmlns="http://www.w3.org/2000/svg" width="32.354" height="31.719" viewBox="0 0 32.354 31.719">
  <g id="noun_Information_558363_000000" transform="translate(-0.323 -0.246)">
    <path id="Shape" d="M16.177,31.719A16.233,16.233,0,0,1,4.739,27.072a15.633,15.633,0,0,1,0-22.425,16.4,16.4,0,0,1,22.875,0,15.633,15.633,0,0,1,0,22.425A16.229,16.229,0,0,1,16.177,31.719Zm0-29.117A13.426,13.426,0,0,0,2.618,15.859,13.443,13.443,0,0,0,16.177,29.152,13.443,13.443,0,0,0,29.736,15.859,13.425,13.425,0,0,0,16.177,2.6Zm0,21.416a1.6,1.6,0,0,1-1.615-1.582V13.292a1.614,1.614,0,0,1,3.228,0v9.143A1.6,1.6,0,0,1,16.177,24.017Zm0-13.046a1.618,1.618,0,1,1,0-3.235,1.656,1.656,0,0,1,1.65,1.617A1.616,1.616,0,0,1,16.177,10.971Z" transform="translate(0.323 0.246)"/>
  </g>
</svg>
