<svg xmlns="http://www.w3.org/2000/svg" width="34.616" height="30.282" viewBox="0 0 34.616 30.282">
  <g id="noun_Pharmacy_563617_1f1f1f" transform="translate(0 -0.359)">
    <path id="Shape" d="M5.859,8.712H3.005a.574.574,0,0,1-.578-.568V6.328H.578A.574.574,0,0,1,0,5.76V2.953a.574.574,0,0,1,.578-.568h1.85V.569A.574.574,0,0,1,3.005,0H5.859a.574.574,0,0,1,.579.569V2.385H8.285a.574.574,0,0,1,.579.568V5.76a.574.574,0,0,1-.579.568H6.438V8.144A.574.574,0,0,1,5.859,8.712Zm-4.7-5.191V5.192H2.975a.6.6,0,0,1,.609.6V7.576h1.7V5.79a.6.6,0,0,1,.608-.6H7.708V3.521H5.89a.6.6,0,0,1-.608-.594V1.137h-1.7v1.79a.6.6,0,0,1-.609.594Z" transform="translate(5.856 14.915)" fill="#1f1f1f"/>
    <path id="Path" d="M9.442,13.691a.764.764,0,0,1-.77-.757v-9.9A1.531,1.531,0,0,0,7.129,1.515H3.083A1.531,1.531,0,0,0,1.542,3.031v9.9a.764.764,0,0,1-.771.757A.764.764,0,0,1,0,12.934v-9.9A3.061,3.061,0,0,1,3.083,0H7.129a3.061,3.061,0,0,1,3.083,3.031v9.9A.764.764,0,0,1,9.442,13.691Z" transform="translate(18.395 16.645)" fill="#1f1f1f"/>
    <path id="Path-2" data-name="Path" d="M4.9,5.32A4.746,4.746,0,0,1,0,.757.764.764,0,0,1,.771,0a.764.764,0,0,1,.771.757A3.217,3.217,0,0,0,4.9,3.805,3.218,3.218,0,0,0,8.258.757.771.771,0,0,1,9.8.757,4.746,4.746,0,0,1,4.9,5.32Z" transform="translate(8.279 8.275)" fill="#1f1f1f"/>
    <path id="Path-3" data-name="Path" d="M4.9,5.32A4.746,4.746,0,0,1,0,.757.764.764,0,0,1,.771,0a.764.764,0,0,1,.771.757A3.218,3.218,0,0,0,4.9,3.805,3.217,3.217,0,0,0,8.258.757.771.771,0,0,1,9.8.757,4.745,4.745,0,0,1,4.9,5.32Z" transform="translate(16.537 8.275)" fill="#1f1f1f"/>
    <path id="Path-4" data-name="Path" d="M4.9,5.32A4.746,4.746,0,0,1,0,.757.764.764,0,0,1,.771,0a.764.764,0,0,1,.771.757A3.217,3.217,0,0,0,4.9,3.805,3.218,3.218,0,0,0,8.258.757.771.771,0,0,1,9.8.757,4.746,4.746,0,0,1,4.9,5.32Z" transform="translate(8.279 8.275)" fill="#1f1f1f"/>
    <path id="Path-5" data-name="Path" d="M4.9,5.32A4.746,4.746,0,0,1,0,.757.764.764,0,0,1,.771,0a.764.764,0,0,1,.771.757A3.218,3.218,0,0,0,4.9,3.805,3.217,3.217,0,0,0,8.258.757.771.771,0,0,1,9.8.757,4.745,4.745,0,0,1,4.9,5.32Z" transform="translate(16.537 8.275)" fill="#1f1f1f"/>
    <path id="Path-6" data-name="Path" d="M30.087,18.855H.771A.764.764,0,0,1,0,18.1V.758A.764.764,0,0,1,.771,0a.764.764,0,0,1,.771.758V17.34H29.316V.758a.771.771,0,0,1,1.542,0V18.1A.765.765,0,0,1,30.087,18.855Z" transform="translate(1.879 11.786)" fill="#1f1f1f"/>
    <path id="Path-7" data-name="Path" d="M4.9,5.32A4.746,4.746,0,0,1,0,.757.764.764,0,0,1,.771,0a.764.764,0,0,1,.771.757A3.218,3.218,0,0,0,4.9,3.805,3.218,3.218,0,0,0,8.258.757.771.771,0,0,1,9.8.757,4.746,4.746,0,0,1,4.9,5.32Z" transform="translate(0.108 8.275)" fill="#1f1f1f"/>
    <path id="Path-8" data-name="Path" d="M4.9,5.32A4.746,4.746,0,0,1,0,.757.764.764,0,0,1,.771,0a.764.764,0,0,1,.771.757A3.218,3.218,0,0,0,4.9,3.805,3.217,3.217,0,0,0,8.258.757.771.771,0,0,1,9.8.757,4.746,4.746,0,0,1,4.9,5.32Z" transform="translate(24.708 8.275)" fill="#1f1f1f"/>
    <path id="Shape-2" data-name="Shape" d="M33.829,9.1H.787A.777.777,0,0,1,0,8.339C0,8.147,3.089,1.23,3.12,1.16A2.084,2.084,0,0,1,4.927,0h24.55a2.127,2.127,0,0,1,1.816,1.138c.136.287,3.321,7.03,3.322,7.2A.777.777,0,0,1,33.829,9.1ZM4.927,1.532a.555.555,0,0,0-.379.245l-2.587,5.8H32.614L29.88,1.784a.586.586,0,0,0-.4-.252Z" transform="translate(0 0.359)" fill="#1f1f1f"/>
  </g>
</svg>
