<svg xmlns="http://www.w3.org/2000/svg" width="45.761" height="26.808" viewBox="0 0 45.761 26.808">
  <g id="noun_Shipping_191965_1f1f1f" transform="translate(-0.144 -0.097)">
    <path id="Shape" d="M39.34,26.807a3.255,3.255,0,0,1-3.163-2.7H23.527a3.2,3.2,0,0,1-3.163,2.7,3.271,3.271,0,0,1-3.21-2.749.425.425,0,0,1-.239.049H13.848a.839.839,0,0,1-.815-.82V4.918c.049-.048.049-.048.049-.1a.059.059,0,0,1,.023-.046.071.071,0,0,0,.025-.05l.048-.049a.064.064,0,0,0,.052-.035l0-.006a.3.3,0,0,1,.041-.056L17.585.241A.8.8,0,0,1,18.16,0H29.948a.874.874,0,0,1,.575.241L34.835,4.58c.028,0,.04.016.056.043l.005.008,0,0a.28.28,0,0,0,.032.04.048.048,0,0,1,.048.049A.064.064,0,0,0,35,4.774a.064.064,0,0,1,.023.048c.048.049.048.049.048.1v.049a.18.18,0,0,0,.048.145V7.666h4.5A5.732,5.732,0,0,1,43.987,9.5a7.6,7.6,0,0,1,1.773,5.255v8.534a.839.839,0,0,1-.815.82H42.5a3.2,3.2,0,0,1-3.163,2.7Zm-.1-4.774a1.591,1.591,0,1,0,1.581,1.591A1.608,1.608,0,0,0,39.244,22.034Zm-18.975,0a1.591,1.591,0,1,0,1.581,1.591A1.608,1.608,0,0,0,20.269,22.034Zm0-1.687a3.226,3.226,0,0,1,3.066,2.218.362.362,0,0,1,.239-.048H33.4V8.486h.048V5.93H14.669l-.006,16.537h2.2a.826.826,0,0,1,.335.1A3.262,3.262,0,0,1,20.269,20.346ZM39.244,20.3a3.237,3.237,0,0,1,3.067,2.169h1.772V14.754c0-3.361-1.726-5.449-4.5-5.449H35.123V22.468h1.1A3.2,3.2,0,0,1,39.244,20.3ZM24.725,1.639v2.7H32.3l-2.683-2.7Zm-6.277,0-2.684,2.7h7.284v-2.7h-4.6ZM10.589,19.526H4.313a.819.819,0,0,1,0-1.639h6.277a.782.782,0,0,1,.814.82A.838.838,0,0,1,10.589,19.526Zm14.566-1.831a.877.877,0,0,1-.575-.241.85.85,0,0,1-.251-.627.729.729,0,0,1,.251-.531l1.247-1.254H19.5a.615.615,0,0,1-.134.015.648.648,0,0,1-.48-.223.775.775,0,0,1-.2-.514.839.839,0,0,1,.814-.82h6.325l-1.1-1.109a.85.85,0,0,1-.251-.627.729.729,0,0,1,.251-.531.835.835,0,0,1,.593-.253.718.718,0,0,1,.557.253l2.492,2.507a.261.261,0,0,1,.039.053c.016.025.027.044.056.044a.065.065,0,0,0,.011.032.044.044,0,0,0,.037.016.063.063,0,0,0,.024.048.063.063,0,0,1,.024.049c0,.048,0,.048.049.1v.385c0,.049,0,.049-.049.1a.062.062,0,0,1-.024.048.064.064,0,0,0-.024.049.046.046,0,0,1-.048.048.272.272,0,0,0-.039.052c-.016.025-.027.044-.056.044l-2.636,2.652A.874.874,0,0,1,25.156,17.695ZM10.542,15.043H.815A.808.808,0,0,1,0,14.224a.839.839,0,0,1,.814-.82h9.727a.819.819,0,0,1,0,1.639Zm.048-4.484H4.313a.819.819,0,0,1,0-1.639h6.277a.819.819,0,0,1,0,1.639Z" transform="translate(0.144 0.096)" fill="#1f1f1f"/>
  </g>
</svg>
