<svg xmlns="http://www.w3.org/2000/svg" width="95.999" height="78" viewBox="0 0 95.999 78">
  <g id="noun_Fish_1879852_1f1f1f" transform="translate(96) rotate(180)">
    <ellipse id="Oval" cx="3.464" cy="3.456" rx="3.464" ry="3.456" transform="translate(24.742 -30.608) rotate(-180)" fill="#1f1f1f"/>
    <path id="Shape" d="M-48.844,78a4.473,4.473,0,0,0,3.153-1.293c6.566-6.384,17.587-13.328,23.573-16.9A61.972,61.972,0,0,0-16.387,56.5c.015-.008.039-.023.041-.025v-.008A70.563,70.563,0,0,0-1.81,43.841a7.665,7.665,0,0,0,1.8-5.252,7.662,7.662,0,0,0-2.2-5.1A92.783,92.783,0,0,0-16.3,21.442v-.008a.271.271,0,0,0-.037-.023l-.012-.006-.009,0a53.279,53.279,0,0,0-6.377-3.667c-5.82-3.461-16.541-10.2-22.96-16.441A4.5,4.5,0,0,0-48.853,0,4.549,4.549,0,0,0-49.8.1a4.481,4.481,0,0,0-3.23,2.75c-1.235,3.095-2.552,7.657-1.805,11.817A49.282,49.282,0,0,0-61.2,16.709a48.516,48.516,0,0,0-12.5,7.325,50.708,50.708,0,0,0-10.092,11.3l-1.836-3.378a.122.122,0,0,1-.008-.021l0-.008a.033.033,0,0,0,0-.01l-4.846-8.983A3,3,0,0,0-93.153,21.3a3.02,3.02,0,0,0-.726.09,2.863,2.863,0,0,0-2.12,2.8V49.716a3.031,3.031,0,0,0,1.7,2.775,2.855,2.855,0,0,0,1.2.266,2.864,2.864,0,0,0,2.383-1.274c1.607-2.36,3.853-5.676,5.834-8.6l.57-.842.089-.131a28.977,28.977,0,0,0,3.529,4.283l.008-.008a71.642,71.642,0,0,0,12.616,10.93,48.975,48.975,0,0,0,13.225,6.3c-.709,4.163.6,8.678,1.814,11.733A4.508,4.508,0,0,0-49.775,77.9,4.554,4.554,0,0,0-48.844,78Zm13.355-13.584h0a98.492,98.492,0,0,0-12.505,9.9,1.2,1.2,0,0,1-.844.345,1.159,1.159,0,0,1-.257-.028,1.144,1.144,0,0,1-.861-.725c-1.029-2.587-2.153-6.365-1.665-9.675a40.8,40.8,0,0,0,8.465.9h.049A41.444,41.444,0,0,0-35.489,64.416Zm-5.379-26.232h0a1.668,1.668,0,0,0-1.2.523,1.69,1.69,0,0,0-.454,1.235,35.352,35.352,0,0,0,2.337,11.1,35.206,35.206,0,0,0,5.721,9.771,39.858,39.858,0,0,1-6.737.942c-.62.03-1.246.045-1.859.045a38.361,38.361,0,0,1-10.252-1.4,43.208,43.208,0,0,1-9.092-3.736A55.884,55.884,0,0,1-71.252,50.6c-1.442-1.2-2.9-2.51-4.32-3.9a57.278,57.278,0,0,1-4.119-4.317,35.874,35.874,0,0,1-2.534-3.425c.239-.35.483-.711.748-1.1l.387-.571a47.13,47.13,0,0,1,9.475-10.641,44.933,44.933,0,0,1,11.637-6.826,45.585,45.585,0,0,1,16.941-3.251,45.94,45.94,0,0,1,7.344.593,41.912,41.912,0,0,1,11.43,3.558,48.121,48.121,0,0,1,6.229,3.567A89.872,89.872,0,0,1-4.559,35.85a4.347,4.347,0,0,1,.24,5.817A67.322,67.322,0,0,1-19.353,54.457c-.718.4-1.9,1.062-3.47,1.984a49.453,49.453,0,0,1-8.059,3.391,32.352,32.352,0,0,1-8.34-20.074A1.651,1.651,0,0,0-40.867,38.183ZM-92.687,25.911l6.806,12.517c-2.285,3.378-4.893,7.227-6.806,10.046ZM-43.01,13.226a49.115,49.115,0,0,0-8.578.757c-.575-3.378.57-7.243,1.632-9.891a1.184,1.184,0,0,1,.852-.734,1.222,1.222,0,0,1,.256-.027,1.205,1.205,0,0,1,.854.352,100.646,100.646,0,0,0,12.954,10.2l-.124-.024A49.174,49.174,0,0,0-43.01,13.226Z" transform="rotate(-180)" fill="#1f1f1f"/>
  </g>
</svg>
