<svg xmlns="http://www.w3.org/2000/svg" width="20.944" height="20.944" viewBox="0 0 20.944 20.944">
  <g id="noun_Plus_2621595" transform="translate(-0.028 -0.007)">
    <path id="Shape" d="M10.472,20.944A10.472,10.472,0,1,1,20.944,10.472,10.484,10.484,0,0,1,10.472,20.944Zm0-19.547a9.075,9.075,0,1,0,9.075,9.076A9.086,9.086,0,0,0,10.472,1.4Z" transform="translate(0.028 0.007)" fill="#252525"/>
    <path id="Path" d="M4.893,0a.7.7,0,0,0-.688.706V4.2H.714a.7.7,0,1,0,0,1.4H4.205V9.085a.7.7,0,0,0,1.4,0V5.594H9.093a.7.7,0,1,0,0-1.4H5.6V.706A.7.7,0,0,0,4.893,0Z" transform="translate(5.597 5.583)" fill="#252525"/>
  </g>
</svg>
