<svg xmlns="http://www.w3.org/2000/svg" width="17.789" height="17.788" viewBox="0 0 17.789 17.788">
  <g id="noun_important_2095249" transform="translate(-0.108 -0.105)">
    <circle id="Oval" cx="0.913" cy="0.913" r="0.913" transform="translate(8.087 12.298)" fill="#252525"/>
    <path id="Shape" d="M8.895,17.788a8.89,8.89,0,1,1,8.894-8.895A8.905,8.905,0,0,1,8.895,17.788Zm0-16.386h0a7.491,7.491,0,1,0,7.492,7.491A7.5,7.5,0,0,0,8.893,1.4Z" transform="translate(0.108 0.106)" fill="#252525"/>
    <path id="Path" d="M.7,5.577a.7.7,0,0,0,.7-.7V.7A.7.7,0,0,0,0,.7V4.876a.7.7,0,0,0,.7.7Z" transform="translate(8.299 4.276)" fill="#252525"/>
  </g>
</svg>
