<?xml version="1.0" encoding="UTF-8"?>
<svg width="35px" height="10px" viewBox="0 0 35 10" version="1.1" xmlns="http://www.w3.org/2000/svg" xmlns:xlink="http://www.w3.org/1999/xlink">
    <!-- Generator: Sketch 53.1 (72631) - https://sketchapp.com -->
    <title>noun_more_1754932</title>
    <desc>Created with Sketch.</desc>
    <g id="UI" stroke="none" stroke-width="1" fill="none" fill-rule="evenodd">
        <g id="HC-ED-Level3-4-5-Mobile-v1.1" transform="translate(-199.000000, -39.000000)" fill="#FA1C41" fill-rule="nonzero">
            <g id="noun_more_1754932" transform="translate(216.500000, 44.000000) rotate(-90.000000) translate(-216.500000, -44.000000) translate(212.000000, 26.000000)">
                <path d="M8.64000259,4.58640994 C8.64000259,2.39144321 6.78645214,0.612009936 4.49999741,0.612009936 C2.21352716,0.612009936 0.359997412,2.39144321 0.359997412,4.58640994 C0.359997412,6.78141641 2.21352716,8.56080994 4.49999741,8.56080994 C6.78645214,8.56080994 8.64000259,6.78141641 8.64000259,4.58640994 Z M8.64000259,18.0000099 C8.64000259,15.8050432 6.78645214,14.0256099 4.49999741,14.0256099 C2.21352716,14.0256099 0.359997412,15.8050432 0.359997412,18.0000099 C0.359997412,20.1950214 2.21352716,21.9744099 4.49999741,21.9744099 C6.78645214,21.9744099 8.64000259,20.1950214 8.64000259,18.0000099 Z M8.64000259,31.4136099 C8.64000259,29.2186482 6.78645214,27.4392099 4.49999741,27.4392099 C2.21352716,27.4392099 0.359997412,29.2186482 0.359997412,31.4136099 C0.359997412,33.6086214 2.21352716,35.3880099 4.49999741,35.3880099 C6.78645214,35.3880099 8.64000259,33.6086214 8.64000259,31.4136099 Z" id="Shape"></path>
            </g>
        </g>
    </g>
</svg>