<svg xmlns="http://www.w3.org/2000/svg" width="80" height="50" viewBox="0 0 80 50">
  <path id="Shape" d="M68.775,50a5.323,5.323,0,0,1-3.613-1.439,6.4,6.4,0,0,1-1.917-3.6H41.131a6.054,6.054,0,0,1-1.885,3.6A5.406,5.406,0,0,1,35.6,50a5.471,5.471,0,0,1-3.718-1.484,6.183,6.183,0,0,1-1.895-3.642.712.712,0,0,1-.419.09H24.209a1.518,1.518,0,0,1-1.424-1.529V9.173c.084-.09.084-.09.084-.18a.12.12,0,0,1,.039-.087l0,0a.117.117,0,0,0,.041-.088l.084-.09c.05,0,.072-.035.094-.072l.007-.014a.437.437,0,0,1,.066-.094L30.743.45A1.35,1.35,0,0,1,31.748,0H52.356a1.487,1.487,0,0,1,1.005.45L60.9,8.543c.051,0,.069.032.1.076L61,8.629a.437.437,0,0,0,.066.094c.083,0,.084.089.084.09a.114.114,0,0,0,.041.088l0,0a.12.12,0,0,1,.04.087c.084.09.084.09.084.18v.09a.348.348,0,0,0,.084.27V14.3h7.874A9.729,9.729,0,0,1,76.9,17.716c2.028,2.358,3.1,5.748,3.1,9.8V43.435a1.518,1.518,0,0,1-1.424,1.529H74.3a6.079,6.079,0,0,1-1.885,3.6A5.4,5.4,0,0,1,68.775,50Zm-.168-8.9a2.975,2.975,0,1,0,2.765,2.968A2.91,2.91,0,0,0,68.607,41.1Zm-33.172,0A2.975,2.975,0,1,0,38.2,44.065,2.91,2.91,0,0,0,35.435,41.1Zm0-3.147a5.363,5.363,0,0,1,3.34,1.158A6.016,6.016,0,0,1,40.8,42.087c.084-.09.254-.09.418-.09H58.388V15.827h.084V11.061H25.634V41.907h3.853a1.529,1.529,0,0,1,.587.18A5.743,5.743,0,0,1,35.435,37.949Zm33.172-.09a5.691,5.691,0,0,1,5.361,4.047h3.1V27.518c0-6.268-3.017-10.162-7.874-10.162H61.4v24.55h1.926A5.641,5.641,0,0,1,68.607,37.859ZM43.225,3.057V8.094H56.461L51.77,3.057Zm-10.974,0L27.56,8.094H40.293V3.057H32.252ZM18.513,36.421H7.539a1.533,1.533,0,0,1,0-3.058H18.513a1.415,1.415,0,0,1,1.424,1.529A1.518,1.518,0,0,1,18.513,36.421ZM43.979,33a1.485,1.485,0,0,1-1.005-.45,1.64,1.64,0,0,1-.439-1.173,1.4,1.4,0,0,1,.439-.986l2.178-2.338H34.094a1.009,1.009,0,0,1-.234.028,1.1,1.1,0,0,1-.84-.417,1.5,1.5,0,0,1-.35-.96,1.518,1.518,0,0,1,1.424-1.528H45.152l-1.927-2.069a1.64,1.64,0,0,1-.439-1.173,1.4,1.4,0,0,1,.439-.986,1.414,1.414,0,0,1,1.036-.472,1.227,1.227,0,0,1,.974.472l4.356,4.676a.5.5,0,0,1,.069.1c.027.048.047.082.1.082a.116.116,0,0,0,.021.062.075.075,0,0,0,.062.028.12.12,0,0,0,.042.09.12.12,0,0,1,.042.09c0,.09,0,.09.084.18v.719c0,.09,0,.09-.084.18a.12.12,0,0,1-.042.09.12.12,0,0,0-.042.09s0,.09-.084.09a.5.5,0,0,0-.068.1c-.027.047-.047.082-.1.082l-4.607,4.946A1.489,1.489,0,0,1,43.979,33Zm-25.55-4.946H1.424A1.463,1.463,0,0,1,0,26.528,1.518,1.518,0,0,1,1.424,25H18.429a1.533,1.533,0,0,1,0,3.057Zm.084-8.364H7.539a1.533,1.533,0,0,1,0-3.057H18.513a1.533,1.533,0,0,1,0,3.057Z" fill="#252525"/>
</svg>
