<svg xmlns="http://www.w3.org/2000/svg" width="32" height="20" viewBox="0 0 32 20">
  <path id="Shape" d="M27.51,20A2.326,2.326,0,0,1,25.3,17.986H16.452A2.3,2.3,0,0,1,14.241,20,2.338,2.338,0,0,1,12,17.95a.286.286,0,0,1-.167.036H9.684a.607.607,0,0,1-.57-.611V3.669c.033-.036.033-.036.033-.072a.048.048,0,0,1,.016-.036.048.048,0,0,0,.017-.036l.034-.036a.042.042,0,0,0,.034-.022.2.2,0,0,1,.033-.05L12.3.18A.537.537,0,0,1,12.7,0h8.242a.6.6,0,0,1,.4.18L24.36,3.417c.021,0,.03.014.04.032a.183.183,0,0,0,.027.04.034.034,0,0,1,.034.036.048.048,0,0,0,.017.036.048.048,0,0,1,.016.036c.033.036.033.036.033.072v.036a.14.14,0,0,0,.033.108V5.72h3.15A3.889,3.889,0,0,1,30.76,7.087,5.945,5.945,0,0,1,32,11.007v6.368a.607.607,0,0,1-.57.611H29.722A2.3,2.3,0,0,1,27.51,20Zm-.067-3.561a1.19,1.19,0,1,0,1.106,1.187A1.164,1.164,0,0,0,27.443,16.438Zm-13.269,0a1.19,1.19,0,1,0,1.105,1.187A1.164,1.164,0,0,0,14.174,16.438Zm0-1.258a2.274,2.274,0,0,1,2.144,1.654.238.238,0,0,1,.168-.036h6.869V6.331h.033V4.424H10.26l-.006,12.338h1.541a.589.589,0,0,1,.235.072A2.3,2.3,0,0,1,14.174,15.18Zm13.269-.036a2.277,2.277,0,0,1,2.145,1.618h1.239V11.007c0-2.507-1.207-4.064-3.149-4.064H24.561v9.82h.771A2.256,2.256,0,0,1,27.443,15.144ZM17.29,1.223V3.237h5.295L20.708,1.223Zm-4.389,0L11.024,3.237h5.093V1.223H12.9Zm-5.5,13.345H3.016a.613.613,0,0,1,0-1.223H7.405a.566.566,0,0,1,.57.612A.607.607,0,0,1,7.405,14.568ZM17.591,13.2a.6.6,0,0,1-.4-.18.656.656,0,0,1-.175-.468.559.559,0,0,1,.175-.395l.871-.935H13.638a.4.4,0,0,1-.094.011.442.442,0,0,1-.336-.167.6.6,0,0,1-.14-.384.608.608,0,0,1,.57-.612H18.06l-.77-.827a.658.658,0,0,1-.175-.47.557.557,0,0,1,.175-.393.566.566,0,0,1,.415-.189.491.491,0,0,1,.39.189l1.742,1.87a.2.2,0,0,1,.027.039c.011.019.019.033.039.033a.05.05,0,0,0,.008.024.03.03,0,0,0,.025.012.048.048,0,0,0,.017.036.047.047,0,0,1,.017.036c0,.036,0,.036.033.072v.287c0,.036,0,.036-.033.072a.047.047,0,0,1-.017.036.048.048,0,0,0-.017.036s0,.036-.033.036a.2.2,0,0,0-.027.039c-.011.019-.019.033-.039.033l-1.843,1.978A.6.6,0,0,1,17.591,13.2ZM7.372,11.223H.57A.585.585,0,0,1,0,10.612.608.608,0,0,1,.57,10h6.8a.613.613,0,0,1,0,1.223Zm.033-3.345H3.016a.613.613,0,0,1,0-1.223H7.405a.613.613,0,0,1,0,1.223Z" fill="#fff"/>
</svg>
