<svg xmlns="http://www.w3.org/2000/svg" width="21.036" height="16.257" viewBox="0 0 21.036 16.257">
  <g id="noun_Medicine_1633332" transform="translate(0.521 0.584)">
    <path id="Path" d="M7.8,3.628h-6A1.815,1.815,0,0,1,0,1.814H0A1.815,1.815,0,0,1,1.8,0h6a1.815,1.815,0,0,1,1.8,1.814h0A1.815,1.815,0,0,1,7.8,3.628Z" transform="translate(10.276 6.908)" fill="none" stroke="#252525" stroke-miterlimit="10" stroke-width="1.263"/>
    <path id="Path-2" data-name="Path" d="M.05,0V3.644" transform="translate(15.058 6.897)" fill="none" stroke="#252525" stroke-miterlimit="10" stroke-width="1.263"/>
    <path id="Path-3" data-name="Path" d="M13.75,10.474a30.318,30.318,0,0,1-5.488,4.391S3.214,11.712.974,7.94C-.57,5.336-.3,2.178,1.961.636c3.285-2.225,6.3,2.1,6.3,2.1s3.2-4.327,6.481-2.1c1.959,1.328,2.42,3.857,1.523,6.2" transform="translate(0.114 0.067)" fill="none" stroke="#252525" stroke-miterlimit="10" stroke-width="1.263"/>
  </g>
</svg>