<svg xmlns="http://www.w3.org/2000/svg" width="16.544" height="20.883" viewBox="0 0 16.544 20.883">
  <g id="noun_thumbs_up_1351290" data-name="noun_thumbs up_1351290" transform="translate(-0.23 -0.059)">
    <path id="Path" d="M0,.533a.528.528,0,0,0,.524.533H1.7A.528.528,0,0,0,2.22.533.528.528,0,0,0,1.7,0H.524a.519.519,0,0,0-.37.156A.537.537,0,0,0,0,.533Z" transform="translate(12.916 4.749)"/>
    <path id="Path-2" data-name="Path" d="M0,.533a.528.528,0,0,0,.524.533H1.7A.528.528,0,0,0,2.22.533.528.528,0,0,0,1.7,0H.524A.528.528,0,0,0,0,.533Z" transform="translate(4.868 4.749)"/>
    <path id="Path-3" data-name="Path" d="M1.047,1.726V.533A.528.528,0,0,0,.524,0,.528.528,0,0,0,0,.533V1.726a.528.528,0,0,0,.524.533A.528.528,0,0,0,1.047,1.726Z" transform="translate(9.478 0.059)"/>
    <path id="Path-4" data-name="Path" d="M.991.156l-.838.852a.54.54,0,0,0,0,.754.518.518,0,0,0,.742,0L1.733.911A.54.54,0,0,0,1.869.4.529.529,0,0,0,1.5.018.518.518,0,0,0,.991.156Z" transform="translate(11.907 1.432)"/>
    <path id="Path-5" data-name="Path" d="M1.362,1.918a.524.524,0,0,0,.485-.329.539.539,0,0,0-.114-.581L.9.156a.518.518,0,0,0-.742,0,.54.54,0,0,0,0,.754l.838.852a.517.517,0,0,0,.371.156Z" transform="translate(6.21 1.424)"/>
    <path id="Shape" d="M4.084,17.486H1.048A1.058,1.058,0,0,1,0,16.42V7.1A1.057,1.057,0,0,1,1.048,6.031H4.081A1.057,1.057,0,0,1,5.127,7.1v.254A1.813,1.813,0,0,0,6.41,6.284L7.936,3.022a3.461,3.461,0,0,0,.293-1L8.387.874A.581.581,0,0,1,8.4.8,1.105,1.105,0,0,1,9.463,0h.085a2.354,2.354,0,0,1,1.69,1.1,3.426,3.426,0,0,1,.1,2.9,5.141,5.141,0,0,0-.365,2.269,15.522,15.522,0,0,1,3.7.319h.023a1.994,1.994,0,0,1,.8.363c.041.032.083.068.137.117a1.974,1.974,0,0,1,.48,2.233,2.262,2.262,0,0,1,.429,1.213,2.358,2.358,0,0,1-.524,1.536,2.376,2.376,0,0,1-.681,2.6,2.338,2.338,0,0,1-1.531,2.508,3.79,3.79,0,0,1-1.514.315H7.824a3.935,3.935,0,0,1-2.047-.577l-.65-.4A1.058,1.058,0,0,1,4.084,17.486ZM1.048,7.1V16.42H4.081V7.1ZM9.438,1.064h0a.053.053,0,0,0-.027.014L9.25,2.155a4.568,4.568,0,0,1-.383,1.309L7.352,6.717a2.835,2.835,0,0,1-2.116,1.7l-.109.017v6.819l1.182.72a2.894,2.894,0,0,0,1.506.426h4.5a2.771,2.771,0,0,0,1.089-.222c1.15-.514.928-1.388.871-1.558a.544.544,0,0,1,.185-.6,1.353,1.353,0,0,0,.5-1.79.541.541,0,0,1,.069-.639,1.483,1.483,0,0,0,.472-1.038,1.28,1.28,0,0,0-.354-.78.538.538,0,0,1-.093-.684.969.969,0,0,0-.125-1.24l-.067-.058a.95.95,0,0,0-.387-.166h-.022a14.839,14.839,0,0,0-3.56-.3h-.006a.948.948,0,0,1-.925-.751,5.905,5.905,0,0,1,.377-2.921,2.469,2.469,0,0,0,0-2,1.329,1.329,0,0,0-.9-.592Z" transform="translate(0.23 3.455)"/>
    <ellipse id="Oval" cx="0.639" cy="0.65" rx="0.639" ry="0.65" transform="translate(2.155 17.568)"/>
  </g>
</svg>